 <svg version="1.0" xmlns="http://www.w3.org/2000/svg" width="700.000000pt" height="700.000000pt" viewBox="0 0 700.000000 700.000000" preserveAspectRatio="xMidYMid meet">
<metadata>
Created by potrace 1.12, written by Peter Selinger 2001-2015
</metadata>
<g transform="translate(0.000000,700.000000) scale(0.100000,-0.100000)" fill="#000000" stroke="none">
<path d="M2840 6376 c0 -3 12 -17 26 -33 14 -15 21 -29 15 -31 -16 -5 -13 -38
4 -52 8 -7 15 -29 15 -49 0 -20 7 -44 14 -54 20 -26 9 -192 -15 -232 -11 -16
-19 -38 -19 -47 0 -14 -8 -18 -34 -18 -33 0 -35 -2 -41 -42 -7 -45 -31 -131
-46 -159 -4 -9 -11 -33 -14 -52 -6 -33 -5 -37 19 -43 35 -8 56 1 56 26 0 23
13 26 30 6 6 -8 26 -16 43 -18 30 -3 32 -5 29 -41 -2 -21 2 -45 8 -52 6 -7 8
-24 5 -38 -6 -21 10 -42 122 -155 136 -139 203 -214 203 -228 0 -5 16 -26 35
-46 19 -20 35 -42 35 -48 0 -6 11 -28 25 -48 14 -20 25 -44 25 -53 0 -8 11
-26 25 -39 17 -16 22 -27 15 -34 -16 -16 -12 -49 5 -42 9 3 15 1 14 -7 -3 -27
2 -37 19 -37 11 0 24 -16 35 -45 11 -25 22 -45 26 -45 12 0 42 -60 36 -71 -4
-5 0 -18 8 -27 33 -37 69 -133 82 -213 3 -21 12 -42 20 -49 8 -7 15 -23 15
-35 0 -13 9 -51 20 -86 10 -35 22 -83 26 -106 6 -42 24 -60 24 -25 0 10 16 24
40 35 50 23 51 36 2 27 -49 -9 -62 -3 -62 25 0 25 42 73 48 55 5 -14 35 -13
50 2 15 15 29 2 34 -32 2 -18 15 -31 45 -45 44 -21 55 -35 27 -35 -9 0 -12 -5
-8 -12 13 -20 13 -73 0 -88 -7 -8 -16 -25 -19 -38 -6 -25 18 -53 65 -76 16 -8
23 -21 23 -41 1 -28 5 -31 35 -26 5 0 7 14 4 31 -4 19 -2 30 5 30 6 0 11 -4
11 -10 0 -5 6 -10 14 -10 12 0 26 -20 26 -36 0 -2 -11 -4 -25 -4 -14 0 -25 -4
-25 -10 0 -5 -11 -10 -25 -10 -16 0 -25 -6 -25 -15 0 -8 -4 -15 -10 -15 -5 0
-10 9 -10 21 0 15 -4 19 -16 15 -9 -3 -20 -6 -26 -6 -5 0 -8 -15 -6 -32 3 -30
1 -33 -26 -33 -31 -1 -45 -18 -25 -30 6 -4 16 -1 21 6 7 11 11 11 15 1 2 -7
10 -18 17 -25 27 -28 37 -92 23 -148 -14 -53 -28 -68 -79 -83 -11 -3 -18 -15
-18 -29 0 -26 -25 -83 -41 -92 -5 -4 -9 14 -9 40 0 38 4 47 23 55 l22 9 -22 0
c-13 1 -23 4 -24 9 -1 8 0 98 1 127 1 11 -1 47 -4 80 -3 33 -7 100 -10 149 -2
49 -9 93 -14 98 -7 7 -8 -35 -4 -119 4 -70 5 -218 3 -328 -2 -187 -1 -199 14
-177 10 14 27 22 46 22 26 0 29 -3 23 -25 -7 -28 -2 -30 27 -15 15 9 19 7 19
-6 0 -10 -8 -26 -17 -37 -12 -12 -18 -35 -18 -63 0 -46 -16 -64 -41 -43 -7 6
-23 9 -35 7 -27 -4 -35 15 -14 35 19 20 19 33 -1 41 -9 3 -17 6 -18 6 -2 0 -6
-22 -9 -49 -3 -27 -15 -70 -26 -95 -13 -26 -22 -70 -23 -108 -2 -46 -9 -73
-26 -102 -14 -22 -30 -67 -37 -100 -16 -73 -69 -189 -105 -231 -10 -11 -23
-36 -29 -56 -6 -19 -33 -64 -59 -99 -26 -34 -61 -83 -78 -107 -56 -78 -169
-188 -290 -280 -51 -40 -111 -74 -204 -119 -30 -15 -63 -31 -72 -35 -10 -5
-24 -9 -32 -9 -8 0 -26 -5 -39 -11 -23 -10 -24 -13 -10 -40 8 -16 11 -34 7
-40 -11 -18 17 -28 45 -16 42 17 54 33 55 74 1 38 2 38 41 38 38 0 41 -2 53
-40 18 -56 7 -114 -24 -125 -17 -7 -24 -17 -24 -35 0 -19 -5 -25 -21 -25 -12
0 -23 -8 -26 -18 -3 -14 -11 -18 -29 -14 -13 2 -27 8 -30 13 -10 17 -42 9 -47
-11 -4 -14 -13 -20 -34 -20 -37 0 -100 23 -116 41 -6 8 -31 28 -54 43 -33 22
-43 35 -43 55 0 36 -17 51 -57 51 -30 0 -33 -3 -33 -28 0 -22 15 -45 60 -92
33 -35 60 -67 60 -72 0 -4 8 -8 19 -8 10 0 24 -7 31 -15 7 -8 22 -15 34 -15
12 0 27 -5 33 -11 18 -18 104 -31 120 -18 10 9 20 9 38 1 18 -8 26 -8 35 4 7
8 25 14 39 14 17 0 36 10 49 25 12 14 26 25 31 25 5 0 14 14 21 30 7 16 16 30
21 30 16 0 53 214 47 275 -2 25 1 31 20 33 25 4 30 -15 7 -24 -20 -8 -9 -24
18 -24 23 -1 67 -58 67 -86 0 -14 12 -18 39 -14 8 1 25 -4 38 -11 44 -24 20
-89 -34 -89 -20 0 -28 8 -40 40 -13 31 -21 40 -40 40 -24 0 -24 -1 -19 -65 6
-58 3 -72 -24 -129 -22 -47 -39 -69 -67 -86 l-38 -22 27 -14 c15 -8 29 -23 33
-34 7 -24 41 -44 60 -36 16 6 8 46 -13 61 -10 8 -12 21 -7 49 6 28 26 56 78
112 39 41 77 74 84 74 7 0 20 8 30 19 23 24 59 35 68 20 4 -6 2 -15 -6 -20
-11 -6 -10 -11 3 -26 9 -10 17 -22 19 -28 1 -5 4 -16 6 -22 9 -23 -5 -40 -77
-98 -39 -31 -74 -63 -77 -71 -3 -8 -11 -14 -19 -14 -7 0 -16 -12 -20 -28 -3
-15 -10 -38 -15 -51 -8 -18 -6 -28 5 -39 13 -13 19 -14 40 -2 16 8 41 11 71 7
35 -5 47 -3 51 8 9 22 42 18 49 -5 7 -22 21 -26 27 -9 7 22 131 30 151 10 16
-16 37 -14 37 4 0 8 -8 15 -17 15 -15 0 -15 2 -4 9 22 14 38 3 45 -30 7 -36
29 -38 44 -4 19 40 53 50 91 27 30 -18 35 -18 62 -5 35 17 35 46 1 51 -34 5
-26 19 16 26 32 5 40 2 59 -21 12 -15 26 -24 30 -20 4 5 1 12 -6 16 -10 7 -11
13 -2 30 14 25 20 26 48 6 20 -14 23 -14 33 5 6 11 9 24 6 29 -8 13 20 45 32
37 7 -4 12 -18 12 -30 0 -13 7 -40 15 -60 14 -32 21 -37 53 -36 4 1 6 16 4 35
-3 29 0 35 17 35 11 0 22 -9 26 -20 9 -28 19 -25 46 15 13 19 30 34 38 32 21
-3 25 52 6 74 -20 21 -11 42 15 34 13 -4 20 0 25 14 6 21 31 35 46 25 17 -10
9 -39 -21 -76 l-30 -37 27 -3 c16 -2 35 0 43 3 55 24 67 28 84 31 26 4 23 22
-6 28 -33 8 -35 43 -4 60 37 19 60 -2 51 -47 -9 -52 8 -39 45 32 25 49 39 65
54 65 22 -1 86 -53 86 -70 0 -5 7 -10 16 -10 14 0 15 2 3 18 -8 9 -18 20 -23
24 -15 11 -13 61 3 88 19 31 31 40 54 40 11 0 27 10 38 23 19 22 19 22 34 3
13 -17 15 -18 15 -3 0 10 8 17 20 17 15 0 22 -9 27 -30 4 -21 19 -39 49 -59
23 -16 44 -25 46 -20 2 5 16 4 34 -3 17 -6 39 -8 48 -5 23 9 17 39 -10 51 -40
18 -21 116 23 116 7 0 34 19 59 42 48 44 64 42 64 -11 0 -20 4 -22 23 -17 12
4 46 13 76 21 29 7 57 19 62 26 7 11 12 11 27 2 17 -10 22 -7 41 17 11 16 21
38 21 49 0 14 9 23 26 27 40 10 157 92 172 121 16 30 9 53 -17 53 -11 0 -21 6
-24 13 -7 22 -62 -5 -61 -31 1 -24 -17 -29 -113 -36 -37 -2 -56 1 -64 11 -7 8
-32 14 -58 14 -80 2 -166 5 -176 8 -5 2 -14 3 -19 2 -22 -4 -36 24 -36 75 0
42 -4 55 -19 63 -10 6 -24 25 -30 43 -6 18 -22 41 -34 50 -16 13 -18 18 -7 18
9 0 24 13 33 30 10 16 25 30 34 30 41 0 99 41 131 94 18 30 56 73 84 97 l50
42 62 -12 c33 -6 93 -13 131 -14 39 -2 76 -6 83 -10 7 -5 21 -5 32 -2 14 5 26
0 38 -15 17 -21 21 -22 68 -11 106 26 184 37 196 30 20 -13 23 -11 24 19 3 55
17 112 30 123 8 6 14 29 14 50 0 26 5 39 13 39 19 0 50 129 36 146 -8 10 -18
9 -48 -7 -21 -10 -46 -28 -57 -39 -57 -59 -69 -70 -77 -70 -5 0 -28 -20 -51
-45 -24 -25 -48 -45 -55 -45 -6 0 -25 -14 -43 -30 -34 -33 -58 -39 -58 -14 0
14 -10 15 -82 8 -132 -14 -232 -6 -400 32 -26 6 -28 4 -28 -28 0 -18 -7 -44
-16 -57 -12 -17 -15 -35 -10 -70 9 -66 -6 -83 -78 -89 -43 -3 -60 -1 -69 11
-7 8 -25 18 -42 22 -59 14 -92 9 -144 -24 -51 -33 -64 -34 -133 -15 -25 7 -23
19 17 78 19 29 35 60 35 69 0 8 11 28 24 44 23 28 46 66 46 77 0 3 -7 6 -15 6
-9 0 -24 -19 -34 -43 -10 -23 -26 -49 -35 -56 -10 -8 -23 -29 -31 -47 -7 -18
-31 -52 -53 -76 -22 -24 -50 -62 -62 -85 -12 -23 -40 -57 -63 -76 -23 -19 -76
-68 -117 -108 -109 -107 -166 -156 -247 -211 -40 -26 -75 -52 -78 -57 -8 -14
-186 -97 -221 -104 -34 -7 -94 23 -94 46 0 8 -9 22 -20 32 -11 10 -20 13 -20
7 0 -24 -19 -11 -49 34 -31 45 -41 94 -20 94 7 0 9 -9 6 -21 -6 -24 18 -38 36
-20 16 16 37 14 37 -4 0 -9 7 -18 15 -21 8 -4 15 -16 15 -27 0 -16 3 -18 12
-9 18 18 28 15 28 -8 0 -16 7 -20 30 -20 60 0 60 84 0 158 -25 32 -31 47 -26
66 3 14 11 26 17 26 6 0 8 -4 5 -9 -9 -14 4 -41 19 -41 7 0 15 9 18 20 5 19 6
19 56 -3 28 -12 51 -28 51 -34 0 -20 38 -15 59 6 24 24 18 55 -19 96 -70 79
-87 115 -51 115 11 0 23 4 26 10 10 16 44 11 74 -11 23 -17 32 -19 50 -10 14
8 21 8 21 1 0 -5 -7 -10 -16 -10 -8 0 -12 -5 -9 -10 9 -15 42 -12 59 6 30 29
19 63 -35 114 -50 45 -58 70 -23 70 10 0 14 9 12 28 -3 25 -1 27 27 23 44 -7
78 -6 100 4 16 6 18 6 8 -6 -15 -15 -17 -39 -5 -39 18 0 40 27 46 55 5 23 1
37 -19 59 l-25 30 31 28 c34 31 33 58 -1 58 -30 0 -84 30 -74 40 5 5 28 4 52
-2 36 -9 45 -8 61 6 25 23 32 20 25 -10 -6 -22 -4 -25 12 -22 13 3 18 11 17
26 -2 12 2 22 7 22 18 0 32 40 19 56 -9 11 -9 17 1 29 7 8 9 15 5 15 -4 0 -2
6 4 14 8 9 8 16 2 20 -18 11 14 86 37 86 12 0 14 11 9 60 -5 41 -2 74 7 103 8
23 18 64 21 90 5 31 14 51 26 58 15 8 19 21 19 64 0 29 5 57 10 60 6 4 8 15 5
25 -4 12 1 22 12 29 15 8 16 13 5 30 -10 18 -10 21 4 21 10 0 14 5 10 15 -3 9
1 18 9 21 8 4 15 16 15 29 0 15 6 22 17 21 10 0 19 7 21 18 3 15 0 18 -17 13
-27 -7 -37 8 -44 64 -5 40 -3 49 18 69 14 13 25 28 25 34 0 12 39 40 46 33 3
-2 0 -16 -6 -31 -13 -35 -5 -48 26 -40 14 4 24 2 24 -5 0 -6 5 -11 10 -11 25
0 7 28 -22 34 l-33 7 30 17 c17 9 34 15 39 14 13 -4 26 19 26 46 0 13 13 40
30 60 20 26 28 44 24 59 -4 16 2 30 22 50 16 15 30 37 31 48 5 44 28 135 34
135 3 0 14 -9 24 -20 23 -25 32 -25 40 0 10 33 25 12 25 -36 0 -32 4 -44 14
-44 8 0 18 5 21 11 4 6 14 8 22 4 10 -3 22 3 30 15 17 24 46 26 63 5 11 -13 9
-20 -9 -38 -25 -27 -26 -44 -6 -71 17 -22 20 -57 6 -71 -5 -6 -11 -23 -13 -40
-3 -26 -7 -30 -30 -28 -32 2 -30 20 -28 -241 1 -149 -10 -248 -41 -366 -11
-41 -23 -108 -28 -147 -5 -40 -19 -92 -30 -116 -12 -24 -21 -49 -21 -55 0 -7
-11 -35 -25 -62 -14 -27 -25 -58 -25 -69 0 -10 -16 -42 -35 -71 -47 -69 -47
-91 0 -55 28 21 42 25 65 20 33 -7 37 1 15 31 -19 26 -19 63 2 71 9 4 29 -1
45 -10 17 -9 35 -17 42 -17 7 0 21 -9 30 -19 17 -19 71 -37 146 -48 19 -3 41
-10 48 -16 7 -6 29 -10 49 -9 20 1 42 -3 48 -8 7 -6 23 -10 36 -10 13 0 52 -3
85 -6 74 -8 211 9 285 35 61 22 209 149 209 181 0 10 7 20 15 24 10 3 15 19
15 44 0 23 6 45 15 52 8 7 15 27 15 45 0 20 6 35 15 39 26 10 8 96 -27 129
-16 15 -33 27 -37 27 -4 0 -16 9 -26 20 -9 10 -29 19 -44 19 -14 0 -33 1 -41
1 -8 1 -37 -4 -63 -10 -27 -7 -51 -9 -55 -5 -12 11 15 40 38 40 12 0 31 11 41
24 15 18 25 22 45 17 18 -5 32 -2 45 10 15 13 24 14 50 5 18 -6 43 -11 55 -11
13 0 24 -5 24 -11 0 -6 14 -27 30 -46 34 -38 39 -90 15 -157 -7 -21 -11 -44
-9 -50 3 -7 -2 -29 -11 -49 -8 -20 -15 -50 -15 -66 0 -16 -4 -33 -10 -36 -14
-9 -12 -61 3 -73 18 -15 81 79 90 133 4 22 23 87 42 145 20 58 39 123 44 146
4 22 17 54 28 70 32 46 36 77 12 92 -32 20 -55 6 -78 -48 -12 -27 -21 -53 -21
-58 0 -19 -28 -20 -44 -3 -21 23 -20 51 1 66 23 17 27 104 6 127 -9 10 -13 24
-10 32 3 8 -3 22 -13 31 -10 9 -20 26 -22 38 -2 11 -10 23 -18 27 -8 4 -25 12
-37 18 -22 11 -63 16 -63 8 0 -2 7 -17 15 -32 26 -50 14 -154 -18 -154 -19 0
-51 37 -92 105 -32 52 -34 60 -20 75 8 9 15 19 15 21 0 3 -44 -1 -97 -8 -54
-8 -115 -14 -137 -14 -23 1 -48 -7 -63 -19 -19 -15 -28 -17 -43 -8 -14 9 -23
7 -46 -11 -20 -16 -35 -20 -56 -16 -17 4 -36 1 -50 -9 -12 -9 -35 -16 -51 -16
-16 0 -40 -9 -54 -20 -16 -12 -34 -18 -45 -14 -10 3 -25 0 -33 -6 -18 -15 -45
-6 -45 14 0 22 45 42 110 50 30 4 64 13 75 20 11 7 56 20 100 30 44 10 127 33
185 52 58 19 119 39 135 44 50 15 224 32 254 25 36 -8 47 7 27 37 -14 21 -13
26 15 63 24 31 27 41 15 43 -26 6 -341 -47 -381 -64 -20 -8 -43 -13 -51 -10
-18 7 -29 75 -15 97 15 25 14 29 -8 29 -11 0 -23 12 -31 30 -7 17 -25 37 -39
44 -23 12 -29 12 -50 -5 -12 -10 -41 -24 -63 -30 -53 -14 -66 -2 -47 43 18 45
79 117 94 112 6 -3 17 7 23 21 20 44 35 19 29 -45 -6 -54 -5 -58 13 -53 13 3
20 15 22 37 2 26 8 32 31 34 15 2 32 13 39 25 6 12 21 33 32 46 100 115 188
173 255 169 25 -1 48 5 66 18 42 29 47 31 95 44 25 7 78 23 118 36 40 14 78
22 83 18 6 -3 17 3 25 15 8 12 22 21 30 21 8 0 36 11 62 25 26 14 53 25 59 25
7 0 13 5 13 10 0 6 -4 10 -9 10 -18 0 -41 32 -41 56 0 30 -3 30 -34 -1 -21
-21 -29 -24 -46 -15 -25 13 -27 65 -4 78 14 8 13 12 -9 36 -23 25 -30 27 -69
21 -34 -5 -47 -3 -57 9 -8 9 -19 16 -26 16 -13 0 -45 -53 -45 -74 0 -20 -83
-91 -121 -104 -30 -10 -41 -9 -68 4 -35 18 -57 54 -48 78 5 12 20 16 57 16 38
0 50 4 50 15 0 8 4 15 8 15 5 0 22 11 38 25 27 23 29 23 47 8 16 -15 19 -15
27 -3 14 22 12 46 -4 59 -11 9 -12 19 -3 46 24 80 -73 101 -150 33 -20 -18
-48 -45 -63 -60 -14 -14 -35 -28 -46 -30 -16 -2 -18 2 -16 30 4 38 3 38 -48
12 -70 -36 -68 -37 -154 99 -39 63 -86 121 -97 121 -5 0 -31 11 -58 24 -27 13
-61 26 -75 30 -14 3 -26 11 -26 16 0 17 -25 11 -38 -10 -7 -12 -18 -17 -28
-13 -11 4 -12 9 -5 16 21 21 11 27 -45 27 -41 0 -60 5 -69 17 -12 16 -40 9
-30 -8 4 -5 2 -9 -3 -9 -5 0 -25 -11 -45 -24 -33 -23 -35 -23 -40 -5 -3 12 4
26 21 40 l27 20 -56 -5 c-53 -6 -59 -4 -102 29 -25 19 -57 35 -71 35 -14 0
-26 5 -26 11 0 7 -9 9 -22 4 -13 -3 -40 -8 -61 -9 -27 -3 -48 -13 -71 -35 -22
-21 -38 -29 -49 -25 -10 3 -28 -1 -42 -10 -32 -21 -38 -20 -30 4 6 19 3 20
-63 14 -98 -9 -113 -4 -139 55 -13 27 -23 52 -23 57 0 4 -15 39 -34 78 -76
160 -88 190 -89 232 -2 35 -5 43 -17 38 -8 -3 -23 -9 -33 -11 -24 -7 -33 -49
-14 -67 8 -8 18 -12 22 -8 5 4 6 -1 2 -10 -3 -9 0 -19 9 -22 8 -3 14 -19 14
-39 0 -19 7 -40 16 -48 9 -7 13 -21 10 -32 -5 -22 6 -82 30 -160 17 -53 8 -77
-26 -77 -25 0 -80 77 -80 112 0 31 -11 36 -30 13 -9 -11 -8 -18 9 -36 29 -32
28 -63 -1 -55 -13 3 -33 6 -46 6 -32 0 -39 27 -14 53 11 12 20 24 20 27 -1 3
2 15 6 28 6 17 11 20 20 13 7 -6 16 -8 19 -4 14 13 6 34 -15 43 -19 7 -20 9
-5 9 15 1 17 6 11 24 -5 12 -8 36 -9 54 0 17 -3 35 -7 39 -5 4 -8 28 -8 53 0
25 -4 53 -9 60 -14 22 6 53 32 51 44 -4 53 1 69 36 13 29 14 40 5 55 -7 11
-16 19 -20 19 -5 0 -15 7 -23 15 -18 18 -34 20 -34 4 0 -6 9 -13 20 -16 29 -8
25 -15 -20 -41 -22 -12 -40 -29 -40 -37 0 -11 -8 -13 -30 -8 -16 3 -30 4 -30
2 0 -2 5 -20 11 -39 15 -48 12 -265 -4 -292 -25 -44 -135 -168 -148 -168 -17
0 -9 39 10 49 10 6 22 23 26 38 3 15 13 32 22 38 22 17 34 100 27 188 -6 71
-5 81 15 108 15 20 19 37 15 53 -3 14 -2 30 2 37 4 7 8 36 8 66 1 52 1 53 -44
78 -25 15 -60 35 -77 46 l-33 21 0 -40 c0 -22 -3 -47 -6 -56 -8 -20 27 -22 56
-3 37 22 48 -29 26 -128 -3 -11 -5 -24 -5 -28 -2 -16 -40 14 -53 40 -7 16 -26
34 -41 41 -16 8 -33 25 -39 38 -6 13 -20 24 -30 24 -22 0 -36 29 -19 40 8 4
-7 9 -35 13 -40 4 -52 1 -73 -18 -15 -13 -41 -36 -58 -51 -28 -25 -33 -36 -35
-84 -1 -39 -8 -62 -22 -78 l-20 -23 21 -5 c21 -6 21 -7 6 -30 -14 -22 -14 -24
1 -30 22 -8 20 -18 -8 -48 -24 -26 -69 -35 -81 -16 -3 6 -14 10 -24 10 -24 0
-47 28 -56 68 -7 36 -24 42 -32 12 -3 -11 -9 -20 -14 -20 -12 0 2 62 17 77 7
7 15 26 19 43 5 21 13 30 26 30 22 0 23 5 7 65 -14 51 -39 60 -59 23 -7 -13
-26 -35 -42 -51 -23 -21 -28 -33 -25 -58 3 -22 0 -33 -13 -39 -14 -8 -17 -22
-17 -76 1 -60 3 -65 21 -60 11 3 33 2 49 -1 40 -8 36 -22 -43 -175 -10 -21
-21 -38 -23 -38 -2 0 -20 7 -40 15 -44 19 -54 39 -32 64 9 10 16 25 16 33 0 9
6 21 14 27 14 12 14 25 0 141 -5 36 -8 41 -16 26 -7 -12 -17 -16 -33 -12 -21
5 -24 1 -40 -69 -10 -40 -24 -76 -31 -79 -8 -3 -14 -17 -14 -31 0 -18 -5 -25
-20 -25 -11 0 -20 4 -20 9 0 5 -13 14 -30 21 -16 7 -30 17 -30 22 0 6 16 44
36 86 26 53 38 94 40 132 6 110 15 185 24 194 5 5 4 19 -2 32 -8 17 -8 27 1
37 9 11 6 24 -14 58 -13 24 -25 54 -25 66 0 12 -4 25 -10 28 -5 3 -10 10 -10
16 0 5 5 9 10 9 6 0 10 -6 10 -14 0 -8 7 -16 15 -20 17 -6 19 7 5 34 -10 18
-100 87 -100 76z m862 -435 c14 -13 15 -25 8 -70 -8 -44 -7 -56 6 -65 13 -10
13 -15 2 -37 -8 -14 -21 -33 -30 -42 -9 -9 -14 -26 -11 -40 5 -26 -16 -53 -61
-77 -36 -19 -56 -7 -56 35 0 21 -13 61 -31 95 -40 78 -35 105 35 165 29 25 58
45 65 45 6 0 11 5 11 11 0 14 40 1 62 -20z m-304 -367 c22 -15 31 -64 12 -64
-5 0 -10 -5 -10 -11 0 -6 -12 -26 -26 -45 -26 -33 -54 -45 -54 -22 0 6 -3 8
-6 5 -4 -4 -1 -14 6 -22 9 -11 10 -19 3 -26 -13 -13 -39 -1 -67 30 -18 20 -18
22 -3 39 10 10 17 26 17 35 0 9 7 20 16 25 9 5 15 15 12 23 -3 8 9 21 26 31
39 21 46 22 74 2z m313 -27 c-13 -13 -26 -3 -16 12 3 6 11 8 17 5 6 -4 6 -10
-1 -17z m-637 -48 c21 -10 23 -15 14 -33 -13 -28 -65 -69 -78 -61 -6 3 -8 16
-5 28 3 12 7 33 9 47 3 14 5 26 5 28 2 6 32 1 55 -9z m1156 -33 c0 -12 -5 -7
-19 24 -11 24 -11 24 3 6 9 -11 16 -24 16 -30z m-631 -53 c18 -15 19 -19 5
-45 -8 -15 -18 -28 -23 -28 -5 0 -14 -13 -21 -29 -16 -39 -31 -43 -70 -20 -40
25 -47 20 -19 -15 16 -20 19 -30 10 -39 -8 -8 -17 -4 -36 13 -29 27 -31 42
-11 63 8 8 27 32 41 53 42 62 87 79 124 47z m91 7 c0 -5 -4 -10 -10 -10 -5 0
-10 5 -10 10 0 6 5 10 10 10 6 0 10 -4 10 -10z m58 -7 c-2 -10 -11 -19 -21
-21 -16 -3 -17 -1 -7 17 13 25 33 28 28 4z m922 7 c0 -5 -2 -10 -4 -10 -3 0
-8 5 -11 10 -3 6 -1 10 4 10 6 0 11 -4 11 -10z m-310 -45 c10 -12 10 -15 -3
-15 -8 0 -17 7 -21 15 -3 8 -2 15 3 15 5 0 14 -7 21 -15z m-1310 -15 c0 -11
-4 -20 -10 -20 -5 0 -10 9 -10 20 0 11 5 20 10 20 6 0 10 -9 10 -20z m1625 10
c3 -5 1 -10 -4 -10 -6 0 -11 5 -11 10 0 6 2 10 4 10 3 0 8 -4 11 -10z m-485
-10 c0 -5 -5 -10 -11 -10 -5 0 -7 5 -4 10 3 6 8 10 11 10 2 0 4 -4 4 -10z m80
0 c8 13 10 13 10 -2 0 -21 -13 -30 -33 -22 -9 3 -13 12 -10 21 5 12 7 12 14 1
7 -11 11 -10 19 2z m-1046 -17 c4 -9 3 -20 -2 -25 -11 -11 -36 17 -27 32 9 15
22 12 29 -7z m910 1 c17 -6 46 -53 46 -74 0 -16 -116 -5 -142 14 -13 9 -38 26
-56 38 -26 16 -30 23 -20 30 13 9 142 3 172 -8z m581 -14 c32 -8 14 -14 -35
-11 -17 1 -37 -10 -60 -33 -19 -20 -43 -36 -52 -36 -27 0 -22 37 8 65 28 26
75 31 139 15z m-485 -20 c0 -5 -4 -10 -10 -10 -5 0 -10 5 -10 10 0 6 5 10 10
10 6 0 10 -4 10 -10z m670 -59 c0 -28 -4 -53 -10 -56 -5 -3 -10 -13 -10 -21 0
-23 -50 -82 -100 -117 -41 -28 -54 -32 -132 -35 -74 -3 -89 -1 -94 12 -4 11
-13 14 -24 11 -10 -3 -21 -1 -25 5 -4 6 -18 15 -31 20 -14 6 -27 18 -31 27 -4
10 -10 20 -14 23 -11 8 1 81 12 74 5 -3 9 -14 9 -25 0 -11 7 -22 15 -25 8 -4
15 -12 15 -20 0 -8 10 -14 23 -14 12 0 31 -6 42 -14 31 -21 82 -29 150 -21 51
5 69 12 97 38 41 38 68 89 68 129 0 15 5 28 10 28 6 0 10 7 10 15 0 8 5 15 10
15 6 0 10 -22 10 -49z m410 20 c0 -32 -16 -49 -31 -34 -11 11 8 63 23 63 4 0
8 -13 8 -29z m-180 0 c0 -32 -41 -64 -54 -43 -3 5 -19 7 -36 4 -18 -2 -30 0
-30 7 0 6 8 12 18 13 39 3 82 18 82 29 0 5 5 9 10 9 6 0 10 -9 10 -19z m-1973
-23 c-3 -8 -6 -5 -6 6 -1 11 2 17 5 13 3 -3 4 -12 1 -19z m1827 -41 c7 -6 6
-7 -4 -4 -8 2 -16 16 -17 33 -1 25 0 26 4 4 3 -14 10 -29 17 -33z m-654 28 c7
-8 19 -15 26 -15 8 0 14 -10 14 -25 0 -22 -3 -24 -17 -16 -27 15 -63 57 -56
65 10 10 20 7 33 -9z m460 0 c0 -33 -30 -84 -57 -98 -48 -24 -80 -28 -93 -12
-7 8 -18 15 -26 15 -15 0 -39 38 -30 47 12 13 118 10 123 -3 8 -21 31 -4 43
32 12 34 40 48 40 19z m-1037 -1 c27 -10 9 -72 -32 -110 -20 -18 -42 -34 -48
-34 -7 0 -13 -8 -13 -18 0 -33 -12 -32 -46 3 -32 35 -36 65 -9 65 8 0 16 9 20
20 7 21 81 80 101 80 7 0 19 -3 27 -6z m-379 -50 c8 -20 8 -24 -1 -24 -17 0
-35 19 -29 29 10 16 23 14 30 -5z m2066 6 c0 -5 -10 -10 -22 -10 -19 0 -20 2
-8 10 19 13 30 13 30 0z m-1413 -36 c-3 -3 -12 -4 -19 -1 -8 3 -5 6 6 6 11 1
17 -2 13 -5z m341 -24 c29 -27 28 -44 -4 -73 -15 -14 -24 -31 -22 -38 3 -9 11
-6 27 10 12 12 29 20 37 17 16 -6 19 -36 3 -36 -5 0 -17 -16 -25 -35 -22 -53
-83 -69 -84 -23 0 4 -11 19 -25 34 -31 33 -31 56 -3 117 18 38 28 47 48 47 15
0 36 -9 48 -20z m-1004 -17 c4 -5 11 -8 14 -9 17 -2 42 -17 42 -25 0 -10 -83
-10 -119 0 -33 9 -38 28 -9 34 39 7 64 7 72 0z m2175 -29 c13 -17 21 -41 21
-66 0 -46 -15 -43 -36 8 -8 19 -21 34 -29 34 -18 0 -19 16 -2 35 17 20 23 19
46 -11z m-1583 -21 c22 -29 16 -43 -17 -43 -28 0 -31 -3 -26 -26 5 -29 -25
-64 -54 -64 -10 0 -22 -7 -27 -16 -8 -15 -12 -15 -37 2 l-29 19 8 -25 c4 -14
10 -33 13 -42 3 -10 0 -18 -6 -18 -6 0 -13 11 -17 25 -3 14 -10 25 -15 25 -20
0 -6 36 20 55 90 62 110 81 111 103 0 18 6 22 31 22 19 0 37 -7 45 -17z m1405
-17 c24 -15 52 -29 62 -32 9 -4 17 -10 17 -15 0 -5 7 -9 15 -9 37 0 75 -99 75
-198 0 -74 -24 -146 -56 -165 -8 -4 -14 -14 -14 -22 0 -22 -70 -70 -152 -104
-66 -27 -83 -30 -117 -22 -22 5 -42 6 -45 4 -8 -9 -86 40 -86 54 0 7 -5 13
-10 13 -6 0 -8 11 -4 25 4 18 0 30 -18 47 -22 21 -28 58 -9 58 11 0 61 -79 61
-96 0 -8 8 -14 19 -14 10 0 30 -9 43 -20 46 -35 95 -36 162 -1 32 17 63 31 70
31 18 1 63 81 79 141 14 55 8 119 -16 156 -4 6 -4 19 0 29 4 10 2 15 -4 11 -5
-3 -26 14 -47 39 -49 58 -101 84 -168 84 -101 -1 -182 -35 -244 -102 -40 -44
-84 -145 -84 -196 0 -30 -6 -45 -21 -55 -11 -8 -16 -18 -11 -21 5 -3 19 -26
31 -51 12 -25 26 -45 31 -45 6 0 10 -9 10 -21 0 -16 -4 -19 -21 -14 -20 7 -21
5 -15 -21 10 -37 15 -42 26 -24 5 8 13 11 17 6 4 -4 0 -13 -10 -20 -23 -18
-21 -24 7 -19 17 4 37 -7 75 -41 28 -25 66 -53 84 -61 18 -8 39 -19 47 -23 20
-12 80 -38 104 -46 13 -5 15 -10 8 -19 -24 -28 -120 -14 -208 31 -45 23 -144
110 -144 126 0 6 -10 22 -22 36 -29 31 -45 65 -54 110 -3 19 -10 40 -14 45
-15 18 -16 80 -2 77 7 -1 18 10 24 24 10 22 10 28 -5 39 -10 7 -14 16 -9 19 5
3 12 24 16 46 3 23 11 38 16 35 5 -3 6 -20 3 -38 -6 -29 -5 -31 10 -18 9 7 17
23 17 36 0 12 11 34 25 49 14 15 25 29 25 32 0 3 6 11 13 19 6 7 25 29 41 48
16 20 42 39 57 42 16 4 32 13 37 20 14 26 57 35 148 31 77 -4 99 -9 135 -30z
m-1531 14 c0 -5 -4 -10 -10 -10 -5 0 -10 5 -10 10 0 6 5 10 10 10 6 0 10 -4
10 -10z m1140 -10 c0 -5 -4 -10 -9 -10 -5 0 -13 -9 -16 -20 -3 -11 -12 -20
-19 -20 -13 0 -60 -66 -71 -100 -9 -29 -25 -25 -25 8 0 19 15 41 50 77 28 28
56 55 63 62 15 15 27 16 27 3z m945 -30 c3 -5 -1 -10 -9 -10 -9 0 -16 5 -16
10 0 6 4 10 9 10 6 0 13 -4 16 -10z m-2475 -20 c19 -19 27 -40 15 -40 -11 0
-65 44 -65 52 0 15 30 8 50 -12z m2400 14 c0 -3 -9 -18 -20 -32 -66 -85 -59
-79 -60 -55 0 36 18 73 42 83 28 11 38 12 38 4z m-233 -58 c-3 -8 2 -16 14
-19 21 -6 27 -37 7 -37 -7 0 -21 7 -31 14 -16 12 -16 17 -5 35 15 24 23 28 15
7z m-1349 -18 c-3 -7 -15 -14 -29 -16 -24 -4 -24 -3 -4 12 24 19 38 20 33 4z
m202 -28 c0 -5 -7 -10 -15 -10 -8 0 -15 5 -15 10 0 6 7 10 15 10 8 0 15 -4 15
-10z m1700 -39 c0 -53 -45 -94 -99 -89 -41 3 -56 32 -21 41 13 3 20 13 20 30
0 21 8 28 43 40 58 21 57 22 57 -22z m-1404 13 c24 -6 30 -20 16 -40 -4 -6
-28 -14 -54 -18 -41 -6 -48 -4 -58 14 -9 17 -8 21 7 27 10 4 22 13 26 20 5 8
16 12 24 9 8 -3 26 -9 39 -12z m914 -9 c0 -8 -6 -15 -14 -15 -17 0 -28 14 -19
24 12 12 33 6 33 -9z m-470 -31 c0 -8 -4 -12 -10 -9 -5 3 -10 10 -10 16 0 5 5
9 10 9 6 0 10 -7 10 -16z m565 -41 c21 -11 41 -25 42 -30 4 -12 -95 -14 -103
-2 -3 5 -16 9 -28 9 -14 0 -30 10 -40 25 -12 18 -13 25 -4 25 7 0 19 -9 26
-20 17 -27 32 -25 32 5 0 27 -2 28 75 -12z m-1245 -10 c7 -16 13 -33 12 -39
-1 -7 4 -14 13 -18 9 -3 15 -18 15 -35 0 -21 -4 -29 -13 -25 -7 2 -21 -4 -30
-14 -16 -18 -16 -20 -1 -33 14 -11 18 -10 34 11 l18 23 11 -21 c10 -18 9 -22
-4 -22 -8 0 -15 -4 -15 -10 0 -5 12 -10 26 -10 22 0 25 -2 14 -15 -9 -11 -9
-19 -2 -28 8 -10 6 -16 -9 -25 -26 -16 -24 -32 4 -32 12 0 28 -9 34 -19 10
-16 8 -22 -7 -36 -14 -13 -17 -22 -10 -35 7 -13 4 -25 -11 -44 -30 -38 -45
-32 -74 25 l-26 52 20 53 c16 44 17 54 5 54 -10 0 -13 7 -8 24 3 14 0 29 -10
39 -9 8 -16 20 -16 25 0 5 -7 15 -15 22 -20 17 -19 27 5 35 21 7 28 49 10 60
-5 3 -10 19 -10 36 0 37 22 38 40 2z m-482 -38 c3 -27 -2 -33 -43 -53 -44 -21
-47 -22 -70 -5 -34 25 -27 44 25 71 59 30 84 26 88 -13z m1306 6 c14 -16 16
-29 11 -62 -16 -94 -69 -135 -161 -123 -74 9 -98 37 -95 108 1 28 2 29 48 23
50 -5 88 7 113 38 13 15 44 33 61 34 3 1 14 -8 23 -18z m-864 -21 c0 -11 -6
-20 -13 -20 -19 0 -27 10 -20 26 8 21 33 17 33 -6z m1150 5 c20 -24 2 -37 -26
-19 -13 9 -24 20 -24 25 0 14 36 10 50 -6z m-1389 -72 c-13 -46 -40 -88 -41
-61 0 21 44 121 48 109 2 -5 -2 -27 -7 -48z m-351 21 c0 -16 -16 -19 -25 -4
-8 13 4 32 16 25 5 -4 9 -13 9 -21z m1671 -37 c-8 -8 -11 -7 -11 4 0 20 13 34
18 19 3 -7 -1 -17 -7 -23z m-1345 -98 c10 -17 -13 -36 -27 -22 -12 12 -4 33
11 33 5 0 12 -5 16 -11z m-66 -44 c0 -22 -52 -65 -78 -65 -31 0 -62 17 -62 35
0 15 70 43 113 44 17 1 27 -4 27 -14z m-160 -45 c0 -5 -4 -10 -10 -10 -5 0
-10 5 -10 10 0 6 5 10 10 10 6 0 10 -4 10 -10z m247 4 c-3 -3 -12 -4 -19 -1
-8 3 -5 6 6 6 11 1 17 -2 13 -5z m73 -74 c0 -5 -4 -10 -10 -10 -5 0 -10 5 -10
10 0 6 5 10 10 10 6 0 10 -4 10 -10z m-67 -37 c-7 -2 -19 -2 -25 0 -7 3 -2 5
12 5 14 0 19 -2 13 -5z m90 -33 c-4 -16 -8 -18 -19 -9 -16 13 -10 29 11 29 8
0 11 -7 8 -20z m-73 0 c0 -5 -4 -10 -9 -10 -6 0 -13 5 -16 10 -3 6 1 10 9 10
9 0 16 -4 16 -10z m590 0 c0 -5 -4 -10 -10 -10 -5 0 -10 5 -10 10 0 6 5 10 10
10 6 0 10 -4 10 -10z m-537 -32 c50 -24 31 -37 -28 -20 -30 8 -52 19 -49 24 8
12 46 10 77 -4z m-93 -57 c0 -26 -4 -30 -40 -36 -49 -8 -80 1 -80 24 0 18 44
37 93 40 24 1 27 -3 27 -28z m197 -35 c-3 -6 5 -21 16 -33 23 -26 18 -38 -12
-28 -30 9 -56 62 -40 81 9 11 15 12 26 3 7 -7 12 -17 10 -23z m-95 -8 c-12
-12 -35 -1 -27 12 3 5 13 6 21 3 10 -4 12 -9 6 -15z m26 -61 c7 -18 12 -39 12
-47 0 -26 50 -80 75 -80 24 0 24 0 7 29 -9 17 -25 32 -34 35 -10 2 -18 12 -18
21 0 12 6 16 19 12 10 -2 25 0 34 5 11 5 24 5 37 -2 24 -13 27 -32 4 -28 -10
2 -19 -3 -21 -9 -3 -7 2 -13 11 -13 9 0 16 -8 16 -19 0 -11 5 -21 11 -23 8 -3
10 -16 5 -40 -5 -28 -12 -37 -29 -40 -16 -2 -21 -9 -19 -25 2 -13 0 -23 -3
-23 -4 0 -15 10 -25 23 -17 20 -21 21 -51 10 -32 -12 -49 -10 -49 8 0 5 8 9
18 9 21 0 42 18 42 37 0 7 -11 13 -24 13 -32 0 -48 22 -54 75 -2 25 -9 48 -13
51 -15 9 -10 26 6 20 10 -4 15 1 15 14 0 31 15 24 28 -13z m888 -39 c12 -19
12 -52 1 -60 -28 -18 -64 41 -40 65 10 11 31 8 39 -5z m-1086 -24 c0 -8 -4
-14 -10 -14 -5 0 -10 9 -10 21 0 11 5 17 10 14 6 -3 10 -13 10 -21z m-39 -21
c2 -18 -1 -33 -6 -33 -10 0 -16 48 -7 63 6 13 10 5 13 -30z m-51 1 c0 -16 -16
-19 -25 -4 -8 13 4 32 16 25 5 -4 9 -13 9 -21z m110 -25 c0 -5 -4 -9 -10 -9
-5 0 -10 7 -10 16 0 8 5 12 10 9 6 -3 10 -10 10 -16z m1205 -39 c3 -5 1 -10
-4 -10 -6 0 -11 5 -11 10 0 6 2 10 4 10 3 0 8 -4 11 -10z m-1098 -17 c7 -19
-44 -34 -86 -27 -47 9 -54 13 -42 27 13 16 123 16 128 0z m151 -121 c9 -6 10
-16 1 -40 -15 -43 -24 -40 -26 8 -2 41 2 46 25 32z m-238 -47 c0 -36 -17 -39
-22 -5 -3 17 -2 32 0 35 10 9 22 -7 22 -30z m-50 -16 c0 -24 -4 -38 -10 -34
-17 10 -11 75 7 75 2 0 3 -18 3 -41z m1474 -24 c4 -15 26 -40 51 -57 31 -22
45 -39 45 -54 0 -13 4 -25 9 -28 5 -4 4 -16 -2 -30 -9 -20 -22 -26 -64 -31
-29 -3 -62 -3 -74 0 -22 7 -22 13 -3 96 4 20 -1 35 -26 63 -40 45 -34 66 19
66 33 0 40 -4 45 -25z m-1399 -65 c3 -6 17 -7 30 -4 32 8 56 -7 27 -17 -21 -8
-82 9 -82 23 0 11 18 10 25 -2z m1548 -26 c9 -9 -4 -35 -14 -28 -5 3 -9 12 -9
20 0 14 12 19 23 8z m-1373 -21 c-1 -25 -48 -59 -63 -44 -7 7 -6 12 6 17 9 3
17 15 17 25 0 12 7 19 20 19 13 0 20 -7 20 -17z m1032 -64 c29 -31 38 -47 34
-63 -3 -11 -6 -33 -6 -48 0 -42 -36 -38 -45 3 -8 35 -52 83 -84 94 -42 13 -16
55 33 55 21 0 40 -11 68 -41z m-1127 21 c-3 -5 -10 -10 -16 -10 -5 0 -9 5 -9
10 0 6 7 10 16 10 8 0 12 -4 9 -10z m-265 -82 c0 -16 -4 -28 -9 -28 -12 0 -24
56 -15 71 10 16 24 -9 24 -43z m114 34 c3 -5 3 -18 0 -29 -5 -18 -12 -21 -47
-18 -50 4 -61 31 -12 28 17 0 24 1 16 4 -11 5 -11 7 0 14 18 11 36 11 43 1z
m54 -24 c-4 -29 -26 -35 -23 -6 3 29 3 28 16 28 6 0 9 -10 7 -22z m1126 -70
c0 -54 -20 -83 -72 -105 -44 -18 -86 0 -90 39 -3 22 4 32 37 52 22 15 43 26
46 26 3 0 16 9 28 20 35 33 52 22 51 -32z m-199 -45 c3 -21 8 -48 11 -60 6
-31 -12 -38 -30 -11 -23 36 -30 76 -16 93 20 24 29 18 35 -22z m465 1 c6 -14
8 -29 6 -32 -9 -15 22 -106 46 -136 20 -25 37 -35 69 -39 24 -3 51 -1 62 5 26
14 85 20 91 9 9 -15 -42 -61 -67 -61 -13 0 -46 -7 -73 -15 -43 -13 -53 -13
-95 2 -41 15 -48 22 -59 57 -7 23 -20 50 -30 61 -23 25 -35 71 -21 79 6 4 11
16 11 27 0 23 28 69 41 69 5 0 14 -12 19 -26z m-1319 6 c5 0 9 -4 9 -10 0 -12
-47 -13 -54 -1 -8 12 6 22 22 16 7 -3 18 -5 23 -5z m785 -75 c4 -8 3 -26 0
-40 -16 -62 -95 -90 -118 -41 -15 35 -5 52 44 75 52 24 67 26 74 6z m-1122
-39 c-3 -9 -16 -16 -29 -16 -12 0 -30 -10 -38 -22 -15 -22 -16 -22 -16 -3 -1
20 35 52 52 47 5 -1 11 7 14 19 5 18 7 19 14 6 5 -8 6 -22 3 -31z m341 24 c6
-1 -8 -6 -30 -10 -43 -8 -50 -7 -41 8 5 8 45 10 71 2z m-118 -42 c-3 -8 -6 -5
-6 6 -1 11 2 17 5 13 3 -3 4 -12 1 -19z m1282 -3 c6 -32 -39 -104 -71 -110
-36 -8 -65 2 -79 27 -13 24 -9 29 62 73 60 37 82 40 88 10z m-1309 8 c0 -2 -6
-11 -14 -18 -10 -10 -16 -11 -25 -2 -17 17 -13 25 14 25 14 0 25 -3 25 -5z
m40 -37 c0 -8 -4 -17 -9 -20 -10 -7 -23 19 -14 28 11 11 23 6 23 -8z m1064
-123 c0 -23 -8 -53 -18 -67 -14 -23 -23 -26 -71 -26 -50 0 -55 2 -61 26 -9 36
10 72 43 79 15 3 39 12 53 20 41 22 55 15 54 -32z m307 1 c22 -21 33 -25 57
-19 44 9 72 -9 72 -48 0 -18 7 -41 15 -51 20 -26 10 -37 -26 -29 -25 5 -38 -2
-87 -44 -80 -70 -126 -91 -215 -98 -99 -8 -147 10 -147 54 0 30 0 30 -56 28
-44 -2 -57 2 -66 16 -7 14 -17 17 -39 12 -20 -5 -29 -3 -30 7 -1 7 -2 18 -3
25 0 6 -13 21 -28 33 -35 27 -36 59 -3 90 14 13 25 29 25 37 0 7 7 13 16 13
10 0 14 -6 10 -17 -2 -10 -7 -29 -11 -41 -12 -41 3 -87 36 -111 27 -20 35 -21
78 -12 45 9 153 65 194 99 15 14 17 13 17 -6 0 -12 6 -22 14 -22 19 0 66 60
66 85 0 50 58 50 111 -1z m-1219 -50 c-24 -17 -39 -14 -27 5 3 6 16 11 28 11
l21 0 -22 -16z m-42 -24 c0 -13 -90 -13 -110 0 -11 7 3 10 48 10 35 0 62 -4
62 -10z m-160 -35 c0 -16 -6 -25 -15 -25 -15 0 -21 31 -8 43 13 14 23 6 23
-18z m-70 -15 c0 -5 -4 -10 -10 -10 -5 0 -10 5 -10 10 0 6 5 10 10 10 6 0 10
-4 10 -10z m-226 -52 c-8 -25 -29 -44 -56 -51 -20 -6 -36 12 -21 22 6 3 15 16
22 29 7 14 21 22 37 22 22 0 24 -3 18 -22z m208 -170 c-7 -7 -12 -8 -12 -2 0
6 3 14 7 17 3 4 9 5 12 2 2 -3 -1 -11 -7 -17z m868 -409 c0 -50 -15 -81 -49
-105 -19 -13 -46 -24 -60 -24 -23 0 -24 2 -17 58 4 36 12 61 22 67 9 6 30 20
48 31 28 19 32 20 44 6 6 -9 12 -23 12 -33z m-195 -33 c0 -14 -21 -26 -93 -51
-51 -19 -99 -38 -105 -43 -7 -5 -37 -17 -67 -26 -65 -18 -111 -61 -209 -193
-28 -37 -44 -73 -55 -122 -20 -86 -19 -95 2 -152 35 -93 85 -125 184 -117 107
9 171 34 246 95 77 63 125 141 136 220 5 43 3 54 -23 94 -18 29 -40 50 -62 58
-78 29 -83 45 -16 49 41 3 56 -2 103 -33 70 -46 78 -63 71 -143 -8 -85 -44
-153 -126 -239 -92 -96 -177 -141 -293 -155 -157 -20 -238 15 -294 125 -35 67
-36 129 -3 192 14 28 32 68 39 90 21 65 100 158 195 232 60 46 214 123 249
124 17 1 42 5 56 9 39 13 65 7 65 -14z m-135 -206 c0 -5 -7 -10 -15 -10 -8 0
-15 5 -15 10 0 6 7 10 15 10 8 0 15 -4 15 -10z m-133 -47 c-9 -9 -19 -14 -23
-11 -10 10 6 28 24 28 15 0 15 -1 -1 -17z m-86 -86 c-29 -30 -39 -12 -10 19
14 15 25 20 27 14 3 -7 -5 -21 -17 -33z m-948 -19 c-10 -11 -19 -15 -21 -8 -5
15 18 41 30 34 5 -3 1 -15 -9 -26z m1225 10 c28 -28 3 -101 -51 -147 -62 -52
-65 -54 -124 -45 -49 8 -58 13 -74 43 -18 34 -16 61 6 61 6 0 20 9 31 21 49
55 182 97 212 67z m-1160 -57 l21 -29 -25 -23 c-13 -12 -24 -28 -24 -36 0 -21
-18 -15 -26 9 -3 12 -13 28 -20 36 -21 21 -17 39 14 55 37 20 36 21 60 -12z
m161 -24 c1 -10 -3 -15 -9 -12 -5 3 -10 21 -9 38 0 27 2 29 9 12 5 -11 9 -28
9 -38z m1701 3 c19 -19 19 -19 -3 -35 -42 -30 -69 -11 -43 30 20 30 21 30 46
5z m-1308 -17 c19 -24 -4 -47 -53 -54 -25 -4 -50 -2 -56 3 -19 15 -16 38 5 38
11 0 27 9 36 19 19 21 48 18 68 -6z m282 -47 c-11 -33 -27 9 -18 47 l7 32 8
-30 c5 -16 6 -39 3 -49z m735 51 c6 -8 8 -17 4 -20 -9 -10 -103 -9 -103 1 0
30 77 45 99 19z m188 -3 c4 -12 -34 -64 -47 -64 -19 0 -22 42 -4 61 18 20 45
22 51 3z m-1987 -8 c0 -19 -39 -31 -53 -17 -7 7 -3 13 14 20 34 14 39 13 39
-3z m280 -30 c0 -8 -7 -16 -15 -20 -17 -6 -18 -4 -9 18 8 20 24 21 24 2z
m1400 7 c0 -15 -65 -73 -82 -73 -28 0 -22 16 19 49 35 29 63 40 63 24z m-1616
-58 c20 -31 34 -60 31 -65 -4 -6 -20 -10 -36 -10 -33 0 -89 51 -89 82 0 15 35
48 51 48 3 0 23 -25 43 -55z m616 -47 c82 -56 98 -134 41 -192 l-32 -31 7 56
c11 96 -37 140 -155 142 -69 1 -66 2 -230 -76 -35 -16 -79 -43 -97 -59 -22
-19 -40 -28 -52 -24 -12 4 -25 -1 -37 -14 -20 -22 -35 -18 -35 11 0 11 4 18 9
14 6 -3 15 4 21 16 9 15 18 19 35 15 13 -3 26 -2 30 4 3 5 30 26 60 45 95 63
236 106 376 114 14 0 41 -9 59 -21z m880 -8 c0 -5 -4 -10 -10 -10 -5 0 -10 5
-10 10 0 6 5 10 10 10 6 0 10 -4 10 -10z m-1110 -131 c8 -33 51 -38 80 -9 12
12 36 24 55 27 45 7 62 -21 44 -72 -7 -19 -17 -35 -22 -35 -6 0 -16 -8 -23
-17 -19 -27 -28 -8 -14 27 15 37 3 55 -24 35 -13 -10 -17 -22 -13 -41 5 -26
-14 -69 -37 -85 -5 -4 -5 -12 -2 -18 20 -32 -72 9 -123 54 -19 17 -41 29 -53
27 -10 -2 -25 1 -31 6 -7 5 -27 13 -44 17 -42 8 -42 30 -2 44 24 8 36 8 45 0
10 -9 14 -9 14 0 0 6 -4 11 -10 11 -5 0 -10 5 -10 10 0 6 14 10 31 10 31 0 68
-31 69 -57 0 -7 5 -13 10 -13 6 0 10 19 10 43 0 64 37 91 50 36z m-544 -76
c-10 -10 -19 5 -10 18 6 11 8 11 12 0 2 -7 1 -15 -2 -18z m998 -17 c-1 -32 -8
-45 -35 -67 -34 -27 -79 -33 -99 -13 -6 6 -10 27 -8 45 3 29 10 37 48 56 25
12 56 21 70 20 22 -2 25 -6 24 -41z m-232 -18 c-7 -7 -12 -8 -12 -2 0 14 12
26 19 19 2 -3 -1 -11 -7 -17z m168 -118 c0 -5 -4 -10 -10 -10 -5 0 -10 5 -10
10 0 6 5 10 10 10 6 0 10 -4 10 -10z"></path>
<path d="M3640 5925 c0 -8 2 -15 4 -15 2 0 12 -3 21 -7 15 -5 16 -3 6 15 -13
25 -31 29 -31 7z"></path>
<path d="M3667 5864 c-8 -8 1 -24 14 -24 5 0 9 7 9 15 0 15 -12 20 -23 9z"></path>
<path d="M3830 4960 c0 -5 5 -10 10 -10 6 0 10 5 10 10 0 6 -4 10 -10 10 -5 0
-10 -4 -10 -10z"></path>
<path d="M4830 4621 c0 -12 5 -21 10 -21 6 0 10 6 10 14 0 8 -4 18 -10 21 -5
3 -10 -3 -10 -14z"></path>
<path d="M3660 1500 c0 -5 7 -10 15 -10 8 0 15 5 15 10 0 6 -7 10 -15 10 -8 0
-15 -4 -15 -10z"></path>
<path d="M2528 6332 c-20 -2 -42 -10 -48 -18 -7 -8 -20 -14 -30 -14 -10 0 -23
-7 -30 -15 -7 -8 -18 -15 -25 -15 -16 0 -85 -83 -85 -102 0 -8 -9 -31 -20 -53
-24 -47 -27 -127 -5 -145 13 -11 15 -5 12 42 -1 36 4 68 18 98 23 54 74 116
91 112 7 -1 15 6 18 16 7 21 66 52 101 52 13 0 26 4 30 9 9 15 106 0 145 -22
l35 -19 -19 21 c-11 11 -25 21 -31 21 -7 0 -18 6 -24 14 -13 15 -72 23 -133
18z"></path>
<path d="M2745 6230 c3 -5 8 -10 11 -10 2 0 4 5 4 10 0 6 -5 10 -11 10 -5 0
-7 -4 -4 -10z"></path>
<path d="M2966 6223 c-5 -11 -1 -22 9 -29 9 -6 18 -22 20 -35 7 -34 55 -67 55
-38 0 6 -8 23 -18 37 -10 15 -24 39 -32 55 -16 31 -25 34 -34 10z"></path>
<path d="M2770 6052 c0 -24 -9 -61 -19 -83 -24 -50 -15 -91 18 -82 22 6 26 32
23 142 -1 59 -22 80 -22 23z"></path>
<path d="M2651 6020 c-7 -19 -20 -50 -29 -68 -14 -29 -14 -35 -1 -43 7 -5 19
-9 26 -9 16 0 32 82 24 122 l-7 32 -13 -34z"></path>
<path d="M2086 5922 c-20 -23 -32 -88 -22 -127 8 -32 26 -23 26 13 0 15 7 37
15 49 11 16 13 31 8 54 -8 30 -9 30 -27 11z"></path>
<path d="M2386 5881 c-1 -4 -2 -40 -2 -81 l1 -75 40 0 c37 1 41 3 53 39 7 21
11 55 9 75 -4 35 -6 36 -51 42 -26 3 -48 3 -50 0z"></path>
<path d="M3022 5867 c-15 -35 -15 -47 -2 -47 14 0 22 24 18 52 -4 22 -5 22
-16 -5z"></path>
<path d="M2595 5871 c-3 -2 -5 -24 -5 -48 0 -25 -4 -52 -9 -61 -4 -9 -11 -33
-15 -52 -6 -34 -5 -36 33 -47 48 -15 71 -9 64 18 -3 11 1 27 9 37 9 9 19 40
22 67 13 97 17 90 -42 90 -29 1 -55 -1 -57 -4z"></path>
<path d="M2192 5783 l3 -58 40 0 c35 0 40 3 43 25 4 38 -32 90 -63 90 -25 0
-26 -2 -23 -57z"></path>
<path d="M2000 5772 c0 -25 4 -32 19 -32 31 0 33 15 6 40 l-25 23 0 -31z"></path>
<path d="M2120 5680 c0 -5 5 -10 11 -10 5 0 7 5 4 10 -3 6 -8 10 -11 10 -2 0
-4 -4 -4 -10z"></path>
<path d="M1910 5623 c-138 -19 -386 -97 -447 -141 -17 -12 -47 -29 -65 -38
-18 -8 -49 -25 -69 -37 -123 -75 -364 -337 -408 -444 -7 -18 -20 -38 -28 -45
-27 -22 -142 -289 -170 -393 -7 -27 -24 -92 -37 -144 -25 -94 -50 -288 -60
-469 -10 -162 25 -487 68 -627 13 -44 33 -111 44 -150 23 -82 88 -253 101
-269 6 -6 17 -34 26 -61 10 -28 23 -57 30 -65 7 -8 20 -31 29 -50 31 -65 139
-238 156 -250 4 -3 24 -27 45 -55 20 -27 52 -64 69 -81 18 -16 37 -37 42 -45
15 -24 215 -194 294 -249 67 -48 163 -100 183 -100 8 0 20 -6 26 -14 7 -8 49
-26 94 -41 45 -15 93 -33 107 -40 14 -7 64 -18 110 -25 47 -6 105 -15 130 -19
57 -11 219 -7 290 7 30 6 78 14 105 18 28 4 73 17 100 29 28 13 71 30 97 39
26 8 64 25 85 36 21 11 43 20 50 20 7 0 16 6 20 13 4 6 34 29 66 50 32 21 60
44 63 52 3 7 17 18 32 25 15 6 45 33 67 60 22 27 50 54 61 61 12 6 28 22 35
36 7 13 21 29 31 34 27 14 22 48 -7 59 -14 5 -25 16 -25 24 0 47 -93 40 -141
-10 -29 -30 -31 -36 -21 -61 6 -15 14 -45 18 -65 6 -34 4 -38 -15 -38 -11 0
-21 4 -21 9 0 12 -84 61 -105 61 -15 0 -15 1 -1 16 9 8 16 24 16 34 0 12 6 17
18 13 10 -2 26 5 36 16 11 12 14 21 8 21 -7 0 -12 9 -12 20 0 24 -16 25 -59 4
-17 -9 -38 -13 -46 -10 -9 3 -15 -1 -15 -10 0 -11 -6 -14 -22 -8 -32 9 -34 13
-20 32 7 9 15 25 19 35 3 10 12 16 19 13 23 -9 65 13 71 35 4 13 23 28 51 40
40 18 44 22 40 49 -3 22 -1 27 7 20 12 -10 46 -5 138 18 39 10 60 22 39 22 -7
0 -12 5 -12 10 0 6 9 10 21 10 11 0 17 4 14 10 -9 14 -47 1 -63 -21 -14 -20
-42 -15 -42 7 0 8 -7 17 -15 20 -27 11 -16 26 14 19 17 -3 40 -1 52 5 19 11
21 18 15 57 l-6 45 35 -6 c26 -5 37 -3 41 8 3 8 12 12 20 9 11 -4 14 5 14 41
0 25 5 46 10 46 6 0 10 -4 10 -10 0 -5 7 -10 16 -10 13 0 14 3 4 15 -7 9 -10
25 -6 41 5 18 1 33 -11 47 -10 11 -13 18 -7 14 7 -4 9 3 6 21 -5 24 -4 26 12
13 14 -12 19 -10 41 13 14 15 25 30 25 35 0 12 -49 51 -65 51 -20 0 -19 19 1
27 9 3 20 0 25 -8 5 -9 9 -10 9 -2 0 6 14 14 30 18 17 4 30 13 30 21 0 21 -31
65 -41 59 -8 -6 -29 26 -29 44 0 6 19 11 43 11 47 0 63 8 61 30 -1 8 -2 21 -3
28 0 6 -14 12 -29 12 -32 0 -52 16 -52 42 0 14 8 18 34 18 28 0 35 -4 40 -25
8 -33 18 -32 34 4 17 39 4 96 -24 97 -62 3 -86 36 -38 54 36 14 45 12 42 -6
-2 -10 2 -19 8 -21 11 -4 27 96 18 106 -2 2 -20 7 -41 10 -42 7 -49 19 -29 46
14 20 15 20 41 -5 l27 -25 -8 25 c-4 14 -7 39 -6 57 2 29 -1 33 -38 44 -40 12
-54 29 -24 29 12 0 15 6 11 21 -4 15 0 23 13 26 46 12 28 63 -22 63 -21 0 -31
6 -37 23 -8 18 -4 24 19 34 45 20 52 73 10 73 -27 0 -70 21 -70 34 0 6 14 24
30 39 39 37 40 67 2 67 -15 0 -33 5 -40 12 -9 9 -12 9 -12 0 0 -16 -17 -15
-23 2 -3 7 8 28 25 44 19 20 28 39 26 54 -3 20 -9 23 -48 24 -25 1 -51 2 -57
2 -20 3 -15 30 7 42 14 8 20 21 20 46 l0 36 -52 -2 c-74 -3 -75 -3 -45 28 15
15 29 42 33 59 6 31 6 31 -32 29 -22 -1 -49 -8 -61 -14 -12 -7 -24 -12 -27
-12 -13 0 -4 39 14 63 11 14 20 35 20 46 0 18 -6 21 -38 21 -21 0 -43 -5 -50
-12 -9 -9 -15 -9 -23 -1 -9 9 -7 21 6 49 17 35 16 37 -3 57 l-21 20 -31 -27
c-42 -35 -62 -35 -54 2 4 15 11 35 15 44 5 9 9 26 9 37 0 33 -50 28 -85 -9
-15 -16 -31 -27 -35 -25 -4 3 -3 24 2 47 16 75 15 83 -12 86 -17 3 -31 -4 -47
-24 -20 -26 -21 -30 -6 -54 15 -26 14 -30 -11 -72 -31 -54 -31 -54 -6 -68 17
-9 25 -5 51 25 57 65 85 37 45 -46 -18 -39 -22 -57 -14 -66 15 -19 23 -17 60
17 40 37 75 37 70 0 -2 -14 -12 -34 -22 -45 -27 -29 -34 -69 -16 -84 12 -11
20 -8 43 13 62 58 101 13 44 -52 -19 -21 -27 -39 -24 -52 8 -31 21 -33 49 -11
27 22 69 28 78 12 11 -18 -15 -66 -45 -83 -26 -15 -28 -20 -19 -38 11 -21 35
-27 45 -10 7 11 95 14 95 3 -1 -21 -32 -59 -65 -82 -21 -14 -40 -32 -43 -40
-3 -8 0 -11 6 -7 6 4 21 1 33 -6 17 -10 23 -10 26 0 3 7 23 12 49 12 39 0 44
-2 44 -23 0 -31 -34 -67 -58 -60 -25 6 -36 -11 -28 -43 4 -15 14 -24 26 -24
17 0 19 5 14 25 -7 30 11 34 26 6 5 -11 24 -22 40 -26 45 -10 35 -35 -25 -66
-28 -14 -50 -31 -49 -37 1 -7 2 -19 3 -27 1 -19 37 -20 44 -1 3 7 1 18 -5 24
-6 6 -6 12 1 16 6 4 15 -4 21 -18 6 -16 17 -26 29 -26 11 0 25 -8 30 -19 8
-14 5 -23 -15 -42 -13 -13 -23 -28 -20 -34 2 -7 0 -18 -5 -26 -7 -11 -10 -10
-15 8 -6 22 -30 38 -38 25 -2 -4 -2 -19 1 -34 5 -24 9 -26 50 -25 29 0 50 -6
61 -17 16 -16 15 -19 -10 -41 -16 -13 -28 -31 -28 -39 0 -26 -17 -26 -28 -1
-7 14 -18 25 -27 25 -16 0 -18 -12 -9 -48 5 -18 12 -22 29 -18 38 10 85 -12
85 -40 0 -15 -6 -24 -15 -24 -8 0 -24 -9 -35 -20 -11 -11 -22 -20 -24 -20 -2
0 -6 9 -9 20 -7 28 -25 25 -33 -4 -8 -34 2 -46 36 -46 16 0 41 -11 57 -24 24
-20 25 -26 14 -40 -9 -11 -29 -16 -61 -16 -39 0 -49 -4 -53 -20 -4 -16 3 -24
38 -40 43 -19 63 -49 49 -71 -6 -11 -47 -8 -90 6 -18 5 -22 2 -27 -22 -3 -15
-2 -29 2 -31 26 -9 101 -63 101 -72 0 -6 -11 -16 -26 -22 -20 -10 -30 -9 -55
6 -66 39 -85 -23 -19 -63 36 -23 55 -54 44 -73 -9 -14 -48 -8 -74 12 -34 26
-47 25 -53 -5 -3 -18 2 -31 18 -43 12 -10 30 -32 39 -50 l17 -32 -32 0 c-18 0
-41 8 -51 17 -15 13 -23 15 -36 7 -27 -18 -25 -38 7 -57 29 -17 49 -63 33 -79
-13 -13 -70 11 -77 33 -9 26 -28 19 -39 -14 -8 -22 -6 -29 17 -47 34 -27 38
-80 7 -80 -13 0 -28 12 -38 30 -20 35 -47 39 -63 9 -9 -17 -7 -25 8 -42 41
-47 52 -97 22 -97 -5 0 -26 16 -48 35 -42 39 -56 43 -65 20 -5 -15 -3 -23 22
-71 11 -23 6 -64 -9 -64 -11 0 -59 64 -59 78 0 16 -11 15 -34 -3 -19 -15 -19
-16 2 -59 12 -24 22 -50 22 -59 0 -28 -22 -31 -42 -6 -54 70 -58 73 -75 56
-12 -12 -13 -20 -6 -29 16 -19 24 -71 14 -86 -13 -21 -48 5 -65 49 -12 30 -19
36 -36 32 -22 -6 -25 -28 -10 -67 5 -14 7 -40 3 -56 -5 -26 -8 -28 -21 -18 -8
7 -24 32 -34 56 -13 29 -25 42 -38 42 -23 0 -24 -3 -9 -45 14 -38 5 -85 -16
-85 -18 0 -37 34 -45 80 -4 26 -10 35 -25 35 -17 0 -20 -6 -17 -45 2 -25 1
-54 -2 -66 -5 -20 -53 -50 -64 -39 -3 3 -5 31 -4 63 3 64 -7 86 -34 80 -15 -3
-18 -11 -16 -38 5 -60 -6 -94 -36 -111 -24 -14 -28 -21 -24 -51 4 -35 5 -36
45 -33 23 2 47 4 52 5 6 2 25 -1 43 -5 22 -5 31 -12 28 -21 -6 -16 29 -20 39
-4 3 5 12 7 19 4 8 -3 17 -1 21 5 8 14 55 15 55 2 0 -6 -12 -16 -27 -23 -26
-12 -29 -20 -37 -91 -7 -64 -11 -77 -25 -75 -12 2 -17 20 -22 72 -7 86 -27
106 -100 106 -40 0 -51 -4 -64 -24 -25 -38 -36 -87 -23 -103 9 -11 8 -18 -4
-30 -24 -24 -38 -7 -38 46 0 87 -60 174 -113 164 -38 -7 -77 -66 -77 -115 0
-27 -4 -38 -15 -38 -24 0 -28 18 -33 150 -2 39 -45 81 -95 94 -23 5 -29 3 -37
-18 -5 -13 -14 -27 -20 -31 -6 -4 -15 -18 -21 -32 -15 -39 -34 -22 -31 27 1
23 -3 48 -9 56 -6 8 -9 25 -7 39 4 20 -3 33 -34 61 -39 34 -40 35 -65 19 -14
-10 -39 -21 -55 -26 -36 -10 -44 6 -31 60 8 30 7 45 -8 73 -26 51 -43 62 -88
54 -57 -9 -73 10 -65 78 6 51 5 53 -32 89 -28 26 -45 35 -60 31 -38 -10 -85
62 -54 81 15 9 12 47 -5 69 -8 11 -15 28 -15 38 0 19 -28 38 -58 38 -42 0 -68
64 -37 90 20 16 19 28 -6 88 -17 41 -28 53 -55 62 -42 14 -57 40 -45 73 6 14
15 28 20 32 30 18 -1 106 -58 163 -37 37 -38 42 -6 80 40 47 35 100 -15 157
-48 56 -51 83 -10 113 26 20 30 29 30 72 0 41 -5 54 -30 80 -42 43 -40 74 9
104 44 28 58 74 36 116 -35 65 -46 97 -40 117 4 19 12 23 44 23 31 0 40 5 49
25 18 38 14 86 -8 120 -24 37 -27 103 -4 112 8 3 27 0 40 -8 33 -17 55 -4 70
42 10 28 9 42 -7 84 -23 60 -24 88 -5 104 11 10 21 9 45 -3 16 -9 37 -16 45
-16 24 0 54 69 45 105 -11 47 -10 104 1 126 14 25 45 10 54 -26 10 -38 47 -33
81 10 24 32 26 41 20 89 -7 54 8 126 25 126 5 0 21 -17 36 -37 16 -21 31 -42
35 -46 9 -12 65 18 73 38 3 9 6 47 6 83 1 55 5 72 24 96 l24 29 13 -24 c7 -13
21 -41 31 -62 17 -36 20 -38 50 -32 48 10 59 25 64 91 8 88 12 102 35 115 29
15 48 -5 64 -68 11 -43 15 -48 43 -51 55 -6 68 9 80 93 5 42 13 79 15 82 3 3
20 6 38 6 35 2 39 -5 56 -98 7 -40 21 -55 48 -55 40 0 67 32 84 101 16 63 16
64 54 67 20 2 37 0 37 -5 6 -110 12 -139 32 -156 13 -11 34 -17 52 -15 26 3
34 12 67 77 20 40 42 77 49 81 16 10 -30 31 -115 55 -33 9 -74 21 -92 26 -18
6 -52 12 -75 15 -24 3 -59 9 -78 14 -33 9 -195 11 -250 3z m116 -40 c-10 -10
-19 5 -10 18 6 11 8 11 12 0 2 -7 1 -15 -2 -18z m1324 -2601 c0 -10 -21 -32
-31 -32 -4 0 -5 9 -2 20 5 19 33 29 33 12z m-36 -133 c5 -5 7 -11 5 -14 -7 -7
-59 18 -59 28 0 10 40 -1 54 -14z m-104 -94 c0 -8 -4 -15 -10 -15 -5 0 -10 7
-10 15 0 8 5 15 10 15 6 0 10 -7 10 -15z m-396 -424 c3 -5 -1 -11 -9 -14 -9
-4 -12 -1 -8 9 6 16 10 17 17 5z m196 -11 c0 -5 -5 -10 -11 -10 -5 0 -7 5 -4
10 3 6 8 10 11 10 2 0 4 -4 4 -10z m-342 -42 c-2 -6 -10 -14 -16 -16 -7 -2
-10 2 -6 12 7 18 28 22 22 4z m132 -19 c0 -5 -7 -9 -15 -9 -9 0 -15 9 -15 21
0 18 2 19 15 9 8 -7 15 -16 15 -21z m-50 -9 c0 -5 -4 -10 -9 -10 -6 0 -13 5
-16 10 -3 6 1 10 9 10 9 0 16 -4 16 -10z m-60 -31 c0 -18 -2 -19 -15 -9 -8 7
-15 16 -15 21 0 5 7 9 15 9 9 0 15 -9 15 -21z m235 1 c4 -6 -8 -15 -25 -21
-29 -10 -30 -14 -23 -43 9 -36 9 -93 0 -102 -3 -3 -23 12 -45 35 -29 31 -47
41 -70 41 -30 0 -46 18 -19 22 6 0 17 2 22 2 20 3 81 31 114 53 39 27 38 26
46 13z m-127 -22 c-3 -7 -15 -15 -28 -16 -21 -3 -22 -2 -11 12 16 19 44 21 39
4z m-558 -32 c0 -11 -19 -15 -25 -6 -3 5 1 10 9 10 9 0 16 -2 16 -4z m-780
-10 c0 -3 -4 -8 -10 -11 -5 -3 -10 -1 -10 4 0 6 5 11 10 11 6 0 10 -2 10 -4z
m1206 -110 c-6 -51 -14 -76 -22 -76 -13 0 -21 20 -26 70 -2 17 -9 25 -22 25
-37 0 -26 21 21 41 27 12 50 20 53 18 3 -1 2 -37 -4 -78z m-726 -177 c0 -5 -7
-9 -15 -9 -9 0 -15 9 -15 21 0 18 2 19 15 9 8 -7 15 -16 15 -21z"></path>
<path d="M2560 5407 l0 -83 45 -22 c25 -12 50 -22 54 -22 5 0 23 28 40 62 25
49 29 64 19 75 -13 16 -128 73 -146 73 -8 0 -12 -27 -12 -83z"></path>
<path d="M2905 5360 c3 -5 8 -10 11 -10 2 0 4 5 4 10 0 6 -5 10 -11 10 -5 0
-7 -4 -4 -10z"></path>
<path d="M2805 5317 c-11 -56 -2 -100 21 -112 12 -6 29 -17 38 -24 15 -12 21
-10 46 14 17 16 30 34 30 40 0 13 -107 115 -121 115 -4 0 -11 -15 -14 -33z"></path>
<path d="M3011 5130 c-9 -26 -7 -34 15 -56 13 -15 24 -31 24 -36 0 -5 12 -13
26 -18 30 -12 54 1 54 29 0 15 -88 111 -102 111 -3 0 -11 -14 -17 -30z"></path>
<path d="M2127 5028 c6 -67 20 -88 41 -61 27 36 3 123 -33 123 -12 0 -13 -12
-8 -62z"></path>
<path d="M2239 5083 c-3 -32 4 -130 10 -136 19 -19 39 6 44 56 5 44 2 55 -15
70 -21 18 -37 22 -39 10z"></path>
<path d="M2005 5063 c5 -10 13 -37 19 -60 13 -52 36 -57 36 -9 0 52 -16 86
-41 86 -16 0 -19 -4 -14 -17z"></path>
<path d="M2356 4998 c1 -65 4 -73 22 -76 17 -3 21 4 27 49 8 57 -7 99 -34 99
-14 0 -16 -12 -15 -72z"></path>
<path d="M1890 5051 c0 -6 4 -12 9 -15 5 -4 12 -24 16 -47 5 -30 11 -39 23
-37 20 4 18 30 -6 76 -15 30 -42 44 -42 23z"></path>
<path d="M2485 5033 c-17 -3 -20 -12 -21 -56 -1 -29 -3 -61 -5 -72 -3 -14 2
-21 19 -23 16 -3 22 2 22 15 0 10 7 29 16 41 11 16 14 31 8 50 -4 15 -6 33 -5
40 1 6 -2 11 -6 11 -4 -1 -17 -4 -28 -6z"></path>
<path d="M1797 4988 c9 -49 21 -68 39 -61 18 7 11 48 -13 76 -24 26 -33 21
-26 -15z"></path>
<path d="M2575 4991 c-3 -5 -5 -29 -5 -53 1 -24 -1 -59 -2 -78 -3 -29 0 -35
17 -35 14 0 23 11 31 40 16 53 17 108 2 123 -14 14 -35 16 -43 3z"></path>
<path d="M1680 4964 c0 -13 53 -73 61 -69 18 12 -22 75 -48 75 -7 0 -13 -3
-13 -6z"></path>
<path d="M2692 4941 c-10 -6 -12 -21 -7 -53 5 -33 2 -54 -9 -77 -17 -33 -14
-51 8 -51 22 0 48 37 53 77 12 85 9 108 -12 111 -11 1 -26 -2 -33 -7z"></path>
<path d="M3200 4921 c0 -19 65 -111 79 -111 16 0 20 14 9 28 -15 17 -34 49
-47 80 -13 27 -41 29 -41 3z"></path>
<path d="M6280 4915 c0 -19 24 -30 41 -19 9 5 7 11 -6 21 -24 17 -35 17 -35
-2z"></path>
<path d="M1606 4882 c9 -36 21 -49 35 -35 12 12 -6 49 -28 58 -10 3 -12 -3 -7
-23z"></path>
<path d="M3330 4860 c0 -5 5 -10 11 -10 5 0 7 5 4 10 -3 6 -8 10 -11 10 -2 0
-4 -4 -4 -10z"></path>
<path d="M1522 4809 c12 -16 24 -26 26 -20 5 16 -17 51 -34 51 -11 0 -10 -7 8
-31z"></path>
<path d="M1991 4823 c-61 -5 -58 9 -28 -133 9 -41 23 -133 32 -205 9 -71 21
-148 26 -170 6 -22 15 -56 20 -76 5 -20 9 -54 9 -75 0 -52 13 -69 52 -69 18
-1 51 -4 73 -8 22 -4 33 -4 25 0 -32 17 -68 56 -63 69 3 8 0 21 -7 29 -8 10
-13 51 -14 113 l-1 97 28 0 c15 1 27 -3 27 -7 0 -4 3 -8 8 -8 9 0 7 68 -2 77
-3 4 -6 1 -6 -5 0 -21 -19 -13 -58 26 -41 41 -62 86 -62 134 0 24 3 28 23 23
33 -8 45 5 51 59 3 27 11 55 16 62 8 8 8 14 0 19 -5 3 -10 17 -10 31 0 26 0
26 -139 17z m59 -92 c0 -39 -16 -48 -23 -13 -6 29 -1 42 14 42 5 0 9 -13 9
-29z m80 -291 c0 -5 -7 -10 -16 -10 -8 0 -12 5 -9 10 3 6 10 10 16 10 5 0 9
-4 9 -10z"></path>
<path d="M1824 4780 c-17 -4 -55 -21 -85 -37 -30 -17 -71 -40 -92 -52 -79 -44
-267 -245 -267 -285 0 -8 -7 -19 -15 -26 -8 -7 -15 -21 -15 -31 0 -10 -14 -34
-30 -52 -17 -19 -30 -40 -30 -46 0 -6 -4 -19 -9 -29 -9 -16 -22 -51 -23 -62 0
-3 -4 -15 -9 -27 -10 -27 14 -46 70 -58 31 -7 33 -5 26 11 -9 21 -10 62 -2 71
3 3 22 0 41 -7 64 -21 73 9 26 83 -25 41 -28 50 -18 67 17 26 26 25 72 -6 31
-21 40 -24 47 -13 13 21 11 33 -17 83 -48 85 -11 128 51 60 33 -36 36 -37 52
-21 16 16 15 21 -6 83 -21 57 -22 67 -9 80 22 22 71 1 85 -37 9 -24 17 -30 35
-27 24 3 27 22 12 82 -5 19 -2 31 7 38 11 7 11 11 2 15 -18 7 -16 33 2 33 8 0
15 -6 15 -14 0 -8 9 -18 20 -21 11 -3 21 -12 21 -18 1 -7 2 -16 4 -22 1 -5 3
-15 3 -22 2 -9 10 -9 32 -2 24 9 30 17 30 39 0 16 -5 41 -10 55 -8 22 -6 34
12 66 25 45 17 59 -28 49z"></path>
<path d="M2177 4784 c-3 -4 2 -18 13 -31 15 -19 18 -34 13 -68 -5 -38 -3 -44
17 -55 20 -11 25 -10 37 6 7 10 13 23 13 29 0 21 31 75 43 75 33 -1 42 -20 42
-87 0 -65 1 -68 25 -71 22 -2 29 6 58 67 17 38 32 77 32 85 0 20 -30 28 -93
25 -37 -2 -61 3 -78 14 -23 17 -109 24 -122 11z"></path>
<path d="M1430 4753 c0 -5 6 -18 14 -29 17 -22 35 -11 20 13 -12 19 -34 29
-34 16z"></path>
<path d="M2507 4693 c-4 -3 -7 -16 -7 -27 0 -12 -9 -26 -22 -31 -34 -15 -60
-74 -49 -112 5 -16 5 -36 0 -44 -5 -8 -3 -16 4 -21 9 -5 9 -10 -1 -20 -9 -9
-12 -9 -12 0 0 7 -7 12 -15 12 -8 0 -15 -4 -15 -9 0 -5 -3 -17 -7 -27 -5 -13
-3 -16 9 -11 10 3 19 0 22 -9 3 -8 14 -14 24 -14 15 0 18 5 14 25 -2 15 0 25
7 25 6 0 10 3 10 8 -4 21 3 24 16 6 14 -19 15 -18 35 6 11 14 18 33 16 42 -2
10 0 21 5 24 5 3 9 0 9 -5 0 -6 5 -11 10 -11 6 0 10 13 10 30 0 20 8 34 24 45
49 32 38 78 -26 111 -29 15 -51 18 -61 7z m-37 -184 c0 -5 -4 -9 -10 -9 -5 0
-10 7 -10 16 0 8 5 12 10 9 6 -3 10 -10 10 -16z"></path>
<path d="M3350 4679 c0 -18 54 -89 68 -89 7 0 -1 21 -20 50 -32 48 -48 61 -48
39z"></path>
<path d="M2656 4588 c-2 -7 -9 -31 -14 -53 -6 -22 -16 -55 -23 -73 -16 -38 -4
-65 29 -70 15 -2 25 4 33 22 7 14 23 33 36 41 35 23 44 55 25 85 -31 49 -78
75 -86 48z"></path>
<path d="M2780 4435 c0 -32 12 -32 27 0 10 22 9 25 -8 25 -14 0 -19 -7 -19
-25z"></path>
<path d="M2567 4443 c-12 -11 -8 -23 8 -23 8 0 15 7 15 15 0 16 -12 20 -23 8z"></path>
<path d="M2280 4425 c0 -8 9 -15 20 -15 11 0 20 -4 20 -10 0 -5 9 -18 21 -29
12 -11 18 -24 14 -30 -3 -6 -1 -11 4 -11 6 0 11 -11 11 -24 0 -31 15 -41 34
-24 11 11 11 16 -2 35 -11 19 -12 26 -2 38 10 12 9 15 -6 16 -11 1 -25 1 -31
0 -7 -1 -13 4 -13 12 0 16 -41 57 -58 57 -7 0 -12 -7 -12 -15z"></path>
<path d="M2720 4415 c-7 -9 -8 -15 -2 -15 5 0 12 7 16 15 3 8 4 15 2 15 -2 0
-9 -7 -16 -15z"></path>
<path d="M2486 4354 c-4 -9 -4 -19 -2 -21 8 -8 26 8 26 23 0 19 -16 18 -24 -2z"></path>
<path d="M2580 4360 c0 -5 5 -10 11 -10 5 0 7 5 4 10 -3 6 -8 10 -11 10 -2 0
-4 -4 -4 -10z"></path>
<path d="M2812 4301 c-35 -36 -84 -87 -110 -113 -26 -26 -55 -55 -66 -66 -24
-26 -169 -171 -179 -180 -4 -4 -21 -23 -38 -42 -30 -33 -30 -35 -15 -61 9 -15
16 -33 16 -41 0 -7 6 -25 14 -39 9 -17 13 -60 13 -125 -1 -97 -1 -99 23 -104
14 -3 90 -37 170 -76 80 -39 161 -77 180 -84 19 -7 39 -17 44 -22 18 -15 36
-8 36 13 0 17 -4 20 -22 16 -24 -7 -78 21 -78 40 0 7 -11 15 -25 19 -13 3 -29
12 -36 20 -6 8 -16 11 -21 8 -5 -3 -15 1 -21 9 -7 8 -21 17 -31 19 -19 3 -19
4 -2 20 16 17 16 17 -13 12 -24 -5 -31 -3 -31 10 0 11 -9 16 -30 16 -39 0 -38
12 1 27 19 7 28 16 24 23 -5 9 -10 9 -18 1 -6 -6 -17 -11 -24 -11 -21 0 -15
26 10 44 l22 17 -22 -4 c-25 -5 -32 10 -28 58 1 17 -2 35 -7 42 -15 19 1 80
23 86 28 8 24 37 -5 37 -14 0 -27 4 -30 9 -10 15 6 43 20 37 9 -3 14 2 14 13
0 41 90 37 109 -5 9 -20 8 -26 -8 -36 -21 -13 -17 -48 5 -48 8 0 14 4 14 8 0
4 15 12 33 17 27 8 31 14 29 35 -2 14 -8 30 -13 36 -4 5 -6 20 -2 32 4 19 1
22 -22 22 -21 0 -26 4 -21 16 3 9 6 22 6 30 0 8 6 14 14 14 15 0 26 30 26 72
0 14 3 33 6 42 7 18 44 22 44 5 0 -6 10 -19 22 -29 38 -30 128 -8 128 31 0 12
8 23 20 26 25 7 25 26 2 61 -11 15 -31 46 -47 70 -15 23 -30 42 -34 41 -3 -1
-34 -31 -69 -68z m48 -70 c-6 -12 -17 -21 -25 -21 -21 0 -19 10 7 37 25 26 36
16 18 -16z m-320 -411 c0 -5 -2 -10 -4 -10 -3 0 -8 5 -11 10 -3 6 -1 10 4 10
6 0 11 -4 11 -10z"></path>
<path d="M2515 4270 c-3 -5 -1 -10 4 -10 6 0 11 -8 11 -17 0 -13 3 -14 11 -6
9 9 8 16 -4 27 -10 10 -18 12 -22 6z"></path>
<path d="M2590 4244 c0 -8 5 -12 10 -9 6 3 10 10 10 16 0 5 -4 9 -10 9 -5 0
-10 -7 -10 -16z"></path>
<path d="M4910 4170 c0 -5 5 -10 11 -10 5 0 7 5 4 10 -3 6 -8 10 -11 10 -2 0
-4 -4 -4 -10z"></path>
<path d="M2979 4148 c0 -2 -2 -16 -3 -32 -1 -16 -12 -37 -26 -48 -62 -49 -90
-77 -90 -91 0 -18 60 -31 101 -22 40 9 69 -2 69 -26 0 -36 -19 -59 -49 -59
-41 0 -64 -30 -56 -74 6 -29 4 -36 -8 -36 -8 0 -18 6 -20 13 -3 6 -4 1 -3 -13
3 -38 24 -70 46 -70 10 0 22 5 25 10 3 6 -3 10 -14 10 -12 0 -21 5 -21 10 0 6
8 10 19 10 10 0 21 9 24 20 3 11 10 20 16 20 6 0 11 -9 11 -20 0 -21 15 -27
25 -10 11 18 35 11 35 -10 0 -21 -8 -24 -49 -20 -18 1 -22 -2 -18 -13 4 -11
-1 -17 -16 -19 -13 -2 -28 -16 -38 -36 -13 -30 -17 -32 -28 -18 -8 9 -22 16
-32 16 -11 0 -19 5 -19 10 0 6 9 10 21 10 11 0 17 5 14 10 -3 6 -14 10 -25 10
-10 0 -20 7 -24 15 -10 26 -43 16 -74 -21 -16 -20 -32 -31 -36 -26 -6 10 12
36 61 88 16 18 18 24 8 24 -8 0 -16 3 -16 8 -1 4 -3 20 -5 36 -4 35 -11 43
-26 28 -9 -9 -9 -12 0 -12 7 0 12 -7 12 -15 0 -8 -7 -15 -15 -15 -8 0 -15 7
-15 15 0 21 -24 19 -46 -6 -12 -13 -26 -18 -40 -15 -22 6 -84 -19 -84 -34 0
-12 54 -20 65 -9 14 14 35 11 35 -6 0 -8 9 -24 20 -35 24 -24 25 -33 5 -50
-20 -17 -19 -21 11 -65 14 -21 23 -46 21 -55 -4 -14 4 -19 34 -24 38 -6 44
-13 41 -55 0 -8 9 -22 21 -31 20 -17 23 -17 54 8 l34 25 22 -22 c13 -11 29
-21 35 -21 7 0 12 -5 12 -11 0 -5 4 -7 10 -4 5 3 21 -2 35 -11 28 -18 34 -61
10 -71 -22 -8 -33 6 -15 17 11 7 2 10 -28 10 -29 0 -42 4 -41 13 3 18 -11 47
-23 47 -6 0 -7 -11 -4 -27 4 -15 3 -29 -3 -33 -13 -7 140 -90 167 -90 15 0 22
12 31 57 17 84 14 100 -16 120 -34 21 -43 33 -43 56 0 11 8 17 23 17 33 0 43
11 50 52 5 34 2 40 -31 67 -31 25 -35 33 -26 48 6 10 21 19 33 21 15 3 21 10
21 30 0 45 -11 72 -30 72 -24 0 -42 24 -38 52 2 15 9 22 21 20 22 -4 23 31 2
80 -10 26 -22 37 -45 41 -35 8 -39 29 -9 51 19 13 20 18 9 53 -15 46 -28 63
-46 63 -8 0 -14 -1 -15 -2z m-249 -428 c0 -11 -4 -20 -9 -20 -11 0 -22 26 -14
34 12 12 23 5 23 -14z m160 -121 c0 -24 -23 -21 -28 4 -2 10 3 17 12 17 10 0
16 -9 16 -21z m169 -35 c17 -13 20 -19 11 -28 -9 -8 -14 -8 -17 2 -3 6 -13 12
-24 12 -19 0 -25 11 -12 23 10 10 16 9 42 -9z m-184 -23 c3 -5 1 -12 -4 -15
-13 -8 -42 4 -35 15 7 12 31 12 39 0z m65 -37 c0 -18 -14 -18 -29 0 -9 11 -9
15 1 19 17 6 28 -1 28 -19z m95 17 c3 -5 1 -13 -5 -16 -15 -9 -43 3 -35 15 8
13 32 13 40 1z"></path>
<path d="M6149 4120 c-8 -4 -41 -10 -73 -13 -32 -3 -63 -10 -68 -15 -12 -12
10 -29 42 -34 36 -5 51 -67 43 -183 l-5 -90 32 -30 c17 -16 40 -50 51 -74 23
-52 30 -48 57 34 16 48 19 69 12 105 -8 38 -5 58 21 136 26 77 34 90 53 90 26
-1 35 44 12 63 -16 13 -156 22 -177 11z"></path>
<path d="M2230 4075 c0 -8 63 -63 88 -76 19 -11 25 -10 39 4 15 15 15 17 -9
26 -14 5 -29 15 -33 20 -3 6 -17 11 -30 11 -13 0 -27 5 -30 10 -6 10 -25 14
-25 5z"></path>
<path d="M2380 4054 c0 -9 5 -14 12 -12 18 6 21 28 4 28 -9 0 -16 -7 -16 -16z"></path>
<path d="M1414 4035 c20 -14 40 -25 45 -25 4 0 36 -14 70 -31 34 -17 65 -28
69 -25 9 9 -49 55 -70 56 -10 0 -18 7 -18 15 0 10 -10 15 -29 15 -17 0 -33 5
-36 10 -3 6 -20 10 -37 10 l-31 0 37 -25z"></path>
<path d="M1197 3923 c-31 -130 -14 -365 39 -558 14 -49 31 -104 39 -122 8 -17
15 -34 15 -38 0 -4 17 -32 37 -62 33 -50 38 -54 49 -38 11 15 16 16 28 6 18
-15 36 -6 36 18 0 10 9 30 21 45 15 19 19 34 15 52 -6 24 -10 25 -45 19 -26
-4 -41 -2 -46 5 -11 17 -25 -7 -25 -42 0 -18 -5 -28 -15 -28 -17 0 -21 55 -5
65 6 3 10 14 10 24 0 9 16 32 35 51 37 36 40 46 26 69 -7 10 -27 14 -74 12
-57 -2 -67 1 -76 18 -19 35 -14 54 13 47 55 -14 119 42 96 83 -6 12 -21 21
-33 21 -27 0 -38 8 -54 37 -19 34 -17 39 27 52 32 9 40 17 40 35 0 28 -10 37
-72 62 -40 16 -48 23 -48 45 0 24 3 26 57 27 68 2 81 12 65 47 -7 14 -12 34
-12 44 0 20 -61 66 -100 76 -24 6 -26 3 -43 -72z m73 7 c0 -25 -10 -50 -20
-50 -15 0 -21 39 -10 60 13 23 30 18 30 -10z m-12 -258 c-5 -45 -28 -38 -28 8
0 37 2 41 16 30 8 -7 14 -25 12 -38z m14 -112 c-2 -14 -8 -32 -12 -40 -7 -12
-10 -10 -18 10 -12 32 -4 62 17 58 11 -2 15 -12 13 -28z m52 -226 c3 -8 1 -24
-5 -35 -8 -16 -13 -18 -25 -8 -21 18 -18 59 5 59 10 0 22 -7 25 -16z"></path>
<path d="M1645 3941 c-3 -5 -1 -12 5 -16 5 -3 10 1 10 9 0 18 -6 21 -15 7z"></path>
<path d="M3751 3923 c-1 -39 -1 -39 41 -13 l33 20 -32 0 c-17 0 -34 6 -36 13
-3 6 -6 -3 -6 -20z"></path>
<path d="M1746 3885 c4 -8 13 -15 21 -15 13 0 13 3 3 15 -7 8 -16 15 -21 15
-5 0 -6 -7 -3 -15z"></path>
<path d="M1990 3860 c0 -6 -10 -10 -22 -10 -19 -1 -17 -4 13 -20 42 -22 92
-81 114 -134 15 -35 15 -37 -7 -45 -13 -5 -71 -18 -128 -30 -58 -12 -125 -27
-149 -34 -49 -15 -67 -37 -29 -37 33 0 171 26 256 49 39 10 74 16 77 12 12
-21 -16 -136 -44 -180 -17 -26 -31 -50 -31 -53 0 -3 19 1 43 9 23 9 77 17 119
18 55 2 82 8 93 19 10 10 25 14 39 10 19 -5 24 1 36 48 17 60 22 187 8 204 -5
7 -7 18 -6 25 2 9 -8 15 -24 17 -20 2 -28 9 -28 23 0 22 -4 23 -30 9 -15 -8
-22 -3 -44 30 -26 40 -50 51 -60 28 -3 -10 -9 -8 -19 5 -8 9 -23 17 -33 17
-16 0 -17 2 -4 10 12 8 10 10 -10 10 -14 0 -49 2 -77 5 -32 3 -53 1 -53 -5z"></path>
<path d="M4515 3830 c-15 -7 -9 -9 25 -9 33 -1 41 2 30 9 -18 12 -28 12 -55 0z"></path>
<path d="M3852 3813 c-28 -3 -42 -8 -39 -16 2 -7 15 -11 28 -9 13 2 37 3 52 3
17 0 27 4 25 11 -5 14 -11 15 -66 11z"></path>
<path d="M2816 3802 c-3 -6 -1 -14 5 -17 15 -10 25 3 12 16 -7 7 -13 7 -17 1z"></path>
<path d="M4566 3785 c-7 -19 3 -47 15 -39 12 7 12 54 0 54 -5 0 -11 -7 -15
-15z"></path>
<path d="M4490 3770 c0 -5 9 -10 20 -10 11 0 20 5 20 10 0 6 -9 10 -20 10 -11
0 -20 -4 -20 -10z"></path>
<path d="M1495 3688 c-12 -26 -12 -29 8 -43 25 -17 47 -20 47 -5 0 6 -4 10
-10 10 -5 0 -1 15 9 33 l18 32 -29 0 c-22 0 -33 -7 -43 -27z"></path>
<path d="M4535 3670 c-7 -12 2 -30 16 -30 12 0 12 27 0 35 -5 3 -12 1 -16 -5z"></path>
<path d="M1468 3633 c7 -3 16 -2 19 1 4 3 -2 6 -13 5 -11 0 -14 -3 -6 -6z"></path>
<path d="M3887 3616 c-6 -15 1 -26 15 -26 11 0 10 27 -1 34 -5 3 -11 0 -14 -8z"></path>
<path d="M3887 3544 c-14 -14 -6 -24 19 -24 16 0 24 5 22 13 -5 14 -31 21 -41
11z"></path>
<path d="M3682 3475 c0 -16 2 -22 5 -12 2 9 2 23 0 30 -3 6 -5 -1 -5 -18z"></path>
<path d="M2395 3439 c-4 -24 -17 -55 -28 -70 -11 -16 -17 -35 -13 -44 4 -12 2
-16 -8 -12 -9 4 -25 -6 -40 -24 -14 -16 -41 -36 -61 -45 -38 -16 -40 -22 -24
-74 10 -32 15 -55 34 -165 4 -22 13 -53 20 -70 7 -16 18 -66 24 -110 17 -109
41 -224 67 -314 6 -19 71 -8 141 24 29 14 64 25 77 25 13 0 26 6 29 13 3 8 30
26 61 41 58 28 180 140 190 174 4 11 18 24 31 30 14 6 25 18 25 25 0 8 9 22
21 33 12 11 18 26 15 37 -7 28 10 64 32 71 11 4 25 20 32 36 10 25 9 33 -9 59
-12 16 -21 34 -21 40 0 6 -10 11 -22 11 -34 0 -90 52 -82 76 4 15 1 14 -15 -6
-30 -36 -36 -81 -16 -120 9 -17 14 -34 11 -37 -8 -8 -56 39 -56 55 0 15 -10
15 -30 1 -13 -8 -12 -12 7 -25 12 -9 19 -22 16 -30 -6 -16 -43 -19 -43 -4 0 6
-7 10 -15 10 -8 0 -15 -4 -15 -10 0 -5 4 -10 9 -10 6 0 9 -8 9 -17 -1 -23 17
-66 34 -84 8 -8 18 -30 21 -49 l7 -35 -21 33 c-12 17 -25 32 -30 32 -13 0 -11
-24 3 -38 6 -6 9 -14 6 -18 -9 -9 -48 15 -48 29 0 17 -36 38 -55 31 -20 -8
-19 -58 1 -90 13 -19 14 -28 5 -37 -6 -6 -11 -19 -11 -29 0 -27 -19 -22 -33
10 -6 15 -17 31 -24 35 -7 4 -13 15 -13 24 0 13 -3 14 -12 5 -17 -17 -29 -15
-62 14 l-29 26 21 21 c21 20 22 21 35 3 10 -14 16 -16 21 -7 8 12 -16 47 -41
64 -7 4 -13 11 -13 15 0 12 56 33 72 27 9 -4 19 6 28 29 10 25 21 37 42 41 18
4 28 13 28 25 0 22 -16 35 -25 20 -10 -15 -35 -12 -35 5 0 8 9 15 20 15 11 0
20 5 20 11 0 7 12 9 32 7 32 -5 32 -5 10 13 -12 9 -22 24 -22 33 0 9 -4 16
-10 16 -5 0 -9 4 -7 9 1 5 -1 9 -5 10 -26 3 -38 -1 -38 -12 0 -8 -9 -22 -20
-32 -20 -18 -21 -18 -50 10 -20 20 -30 24 -30 14 0 -8 5 -20 11 -26 15 -15 2
-73 -17 -74 -8 -1 -19 -2 -24 -3 -6 -1 -16 10 -23 23 -14 29 -37 39 -37 17 0
-9 4 -16 10 -16 15 0 35 -43 21 -48 -22 -7 -11 -31 16 -34 17 -2 29 -10 31
-20 5 -27 -45 -24 -53 2 -3 11 -12 20 -19 20 -14 0 -96 93 -96 108 0 5 11 17
25 26 14 9 25 26 25 37 0 20 44 64 64 64 6 0 13 9 16 20 3 11 14 33 24 49 l20
29 -23 18 c-30 24 -51 24 -51 0 0 -23 -15 -35 -30 -26 -7 5 -8 11 -1 19 6 7 6
17 1 26 -5 9 -5 19 2 28 8 9 8 16 1 23 -8 8 -13 -2 -18 -32z m5 -94 c0 -8 -7
-15 -15 -15 -16 0 -20 12 -8 23 11 12 23 8 23 -8z m460 -330 c7 -9 11 -18 8
-20 -9 -10 -38 7 -38 21 0 18 14 18 30 -1z m-335 -214 c2 -4 -9 -17 -25 -29
-29 -22 -45 -17 -34 12 4 12 0 16 -16 16 -16 0 -20 -4 -16 -15 3 -8 1 -15 -4
-15 -20 0 -10 41 12 49 22 8 73 -3 83 -18z m-1 -125 c-6 -15 -24 -23 -24 -11
0 8 24 34 28 30 1 -1 0 -10 -4 -19z"></path>
<path d="M1760 3431 c0 -5 5 -13 10 -16 6 -3 10 -2 10 4 0 5 -4 13 -10 16 -5
3 -10 2 -10 -4z"></path>
<path d="M3560 3410 c0 -5 7 -7 15 -4 8 4 15 8 15 10 0 2 -7 4 -15 4 -8 0 -15
-4 -15 -10z"></path>
<path d="M2610 3344 c0 -9 40 -23 44 -15 3 5 -5 11 -19 13 -14 3 -25 4 -25 2z"></path>
<path d="M1843 3308 c-13 -6 -23 -18 -23 -25 0 -8 -81 -95 -180 -194 l-179
-179 36 -37 c20 -20 54 -56 76 -81 42 -49 87 -85 127 -102 14 -6 34 -21 45
-34 27 -32 162 -100 260 -131 86 -27 277 -46 288 -28 9 14 -17 114 -37 146
-20 30 -36 35 -36 12 0 -32 -20 -13 -26 25 -5 32 -12 42 -32 47 -14 3 -34 0
-45 -7 -18 -11 -23 -10 -37 7 -10 13 -28 20 -50 20 -41 0 -60 -12 -60 -39 0
-15 -4 -18 -22 -12 -29 8 -38 22 -38 55 0 27 -16 49 -37 49 -7 0 -29 -18 -49
-40 -20 -22 -40 -38 -43 -34 -3 3 -6 36 -6 72 0 63 -2 67 -24 70 -16 3 -33 -6
-53 -27 -17 -17 -35 -31 -42 -31 -17 0 -18 76 -1 90 25 21 19 69 -10 82 -14 6
-25 14 -25 18 0 12 78 80 104 90 23 8 26 7 26 -10 0 -11 5 -20 10 -20 6 0 10
5 10 10 0 6 7 10 15 10 22 0 18 21 -5 27 -25 7 -25 14 2 48 67 85 106 112 139
95 34 -19 31 -6 -6 33 -39 40 -40 41 -72 25z m257 -688 c0 -5 -4 -10 -10 -10
-5 0 -10 5 -10 10 0 6 5 10 10 10 6 0 10 -4 10 -10z"></path>
<path d="M2680 3300 c0 -5 5 -10 10 -10 6 0 10 5 10 10 0 6 -4 10 -10 10 -5 0
-10 -4 -10 -10z"></path>
<path d="M2640 3291 c0 -15 91 -91 102 -85 13 8 -33 56 -48 50 -6 -2 -16 6
-23 20 -10 23 -31 33 -31 15z"></path>
<path d="M3650 3286 c-16 -20 -25 -119 -12 -142 10 -18 11 -17 20 7 6 14 13
50 17 81 7 58 -3 80 -25 54z"></path>
<path d="M2537 3273 c-12 -12 -7 -33 8 -33 17 0 19 9 7 28 -5 7 -11 9 -15 5z"></path>
<path d="M2505 3260 c3 -5 8 -10 11 -10 2 0 4 5 4 10 0 6 -5 10 -11 10 -5 0
-7 -4 -4 -10z"></path>
<path d="M2805 3250 c3 -5 11 -10 16 -10 6 0 7 5 4 10 -3 6 -11 10 -16 10 -6
0 -7 -4 -4 -10z"></path>
<path d="M1993 3223 c7 -12 91 -43 114 -43 30 0 10 17 -34 29 -27 7 -57 16
-67 19 -12 3 -17 1 -13 -5z"></path>
<path d="M2810 3200 c0 -5 5 -10 11 -10 5 0 7 5 4 10 -3 6 -8 10 -11 10 -2 0
-4 -4 -4 -10z"></path>
<path d="M2958 3184 c19 -10 32 -24 32 -35 0 -20 10 -23 48 -13 37 10 25 31
-23 38 -24 4 -47 11 -50 17 -4 5 -14 9 -23 9 -10 0 -3 -7 16 -16z"></path>
<path d="M3814 3139 c-3 -6 -2 -15 2 -19 12 -12 38 5 30 19 -9 14 -23 14 -32
0z"></path>
<path d="M1498 3128 c-16 -6 -28 -18 -30 -31 -2 -15 -10 -22 -25 -22 -12 0
-25 -4 -29 -7 -4 -4 -15 -3 -25 3 -22 11 -22 9 -9 -25 5 -14 18 -30 29 -35 17
-9 25 -5 56 26 31 32 70 93 63 98 -2 1 -15 -2 -30 -7z"></path>
<path d="M2120 3070 c0 -11 4 -20 9 -20 5 0 11 9 14 20 3 13 0 20 -9 20 -8 0
-14 -9 -14 -20z"></path>
<path d="M1810 3055 c-7 -9 -9 -22 -5 -32 5 -10 7 -26 6 -35 -3 -25 20 -23 26
2 4 17 8 18 20 8 11 -9 16 -9 24 3 14 22 11 28 -16 41 -14 6 -25 15 -25 20 0
13 -16 9 -30 -7z"></path>
<path d="M3585 3012 c-49 -34 -42 -178 8 -159 16 6 44 138 32 157 -7 12 -26
13 -40 2z"></path>
<path d="M2045 2990 c-3 -5 -1 -10 4 -10 6 0 11 5 11 10 0 6 -2 10 -4 10 -3 0
-8 -4 -11 -10z"></path>
<path d="M1880 2966 c0 -9 7 -16 16 -16 9 0 14 5 12 12 -6 18 -28 21 -28 4z"></path>
<path d="M2730 2940 c0 -5 5 -10 10 -10 6 0 10 5 10 10 0 6 -4 10 -10 10 -5 0
-10 -4 -10 -10z"></path>
<path d="M2600 2848 c0 -29 16 -46 30 -32 5 5 0 20 -10 34 l-20 25 0 -27z"></path>
<path d="M4874 2825 c24 -18 49 -20 44 -2 -3 6 -18 13 -34 15 -28 2 -28 2 -10
-13z"></path>
<path d="M2190 2805 c0 -8 5 -15 10 -15 6 0 10 7 10 15 0 8 -4 15 -10 15 -5 0
-10 -7 -10 -15z"></path>
<path d="M3415 2790 c3 -5 8 -10 11 -10 2 0 4 5 4 10 0 6 -5 10 -11 10 -5 0
-7 -4 -4 -10z"></path>
<path d="M4970 2791 c0 -9 41 -23 48 -16 2 2 1 8 -3 14 -8 13 -45 15 -45 2z"></path>
<path d="M3469 2752 c-47 -49 -52 -110 -13 -141 31 -24 44 -26 44 -8 0 7 11
28 23 47 34 51 42 89 20 96 -10 3 -26 10 -35 15 -22 11 -19 11 -39 -9z"></path>
<path d="M6054 2739 c-10 -17 13 -36 27 -22 12 12 4 33 -11 33 -5 0 -12 -5
-16 -11z"></path>
<path d="M6057 2644 c-7 -8 4 -44 14 -44 12 0 12 37 0 44 -4 3 -11 3 -14 0z"></path>
<path d="M1545 2589 c-4 -6 -5 -13 -2 -16 7 -7 27 6 27 18 0 12 -17 12 -25 -2z"></path>
<path d="M3297 2506 c-20 -25 -37 -50 -37 -56 0 -7 14 -29 30 -50 17 -21 30
-45 30 -54 0 -9 2 -16 5 -16 10 0 55 52 55 64 0 7 11 23 25 36 36 34 32 64
-12 95 -21 14 -42 25 -48 25 -6 0 -27 -20 -48 -44z"></path>
<path d="M5769 2495 c-11 -25 -24 -43 -29 -40 -4 3 -11 -9 -15 -27 -4 -18 -22
-49 -40 -68 -23 -24 -35 -49 -40 -80 -11 -68 -22 -90 -45 -90 -11 0 -20 -4
-20 -10 0 -5 5 -10 10 -10 18 0 10 -18 -10 -23 -30 -8 -24 -20 18 -39 42 -19
82 -14 82 11 0 9 7 37 17 63 16 45 38 63 72 58 7 -1 11 5 8 12 -2 7 -10 12
-16 11 -17 -4 -13 28 5 41 8 7 17 28 18 47 2 20 6 41 10 48 9 14 53 15 61 1 3
-5 10 -10 16 -10 12 0 12 37 -1 45 -5 3 -10 17 -10 30 0 13 5 27 10 30 18 11
10 25 -15 25 -18 0 -25 -5 -25 -20 0 -11 -5 -20 -10 -20 -17 0 -23 29 -10 45
10 12 9 15 -4 15 -11 0 -25 -17 -37 -45z"></path>
<path d="M6025 2530 c3 -5 8 -10 11 -10 2 0 4 5 4 10 0 6 -5 10 -11 10 -5 0
-7 -4 -4 -10z"></path>
<path d="M1627 2508 c-7 -27 -5 -30 17 -22 19 7 22 44 2 44 -7 0 -16 -10 -19
-22z"></path>
<path d="M3100 2505 c0 -8 7 -15 15 -15 8 0 15 7 15 15 0 8 -7 15 -15 15 -8 0
-15 -7 -15 -15z"></path>
<path d="M3180 2510 c0 -5 7 -10 15 -10 10 0 15 -10 15 -30 0 -16 5 -30 11
-30 6 0 8 8 4 19 -4 12 0 21 12 25 14 6 13 9 -11 21 -33 18 -46 19 -46 5z"></path>
<path d="M1732 2448 c-5 -18 -8 -35 -6 -37 7 -9 34 23 34 40 0 32 -19 30 -28
-3z"></path>
<path d="M3056 2464 c-23 -23 -20 -30 4 -9 11 10 20 20 20 22 0 7 -9 2 -24
-13z"></path>
<path d="M3134 2455 c-4 -16 -16 -36 -26 -43 -24 -17 -23 -32 2 -32 13 0 20 7
20 20 0 17 5 19 25 14 25 -6 35 9 14 21 -6 4 -14 17 -19 29 -7 20 -8 19 -16
-9z"></path>
<path d="M1824 2397 c-19 -40 -13 -57 14 -41 20 13 28 52 13 67 -7 7 -15 -1
-27 -26z"></path>
<path d="M5996 2423 c-11 -11 -6 -23 9 -23 8 0 15 4 15 9 0 13 -16 22 -24 14z"></path>
<path d="M2985 2410 c4 -6 11 -8 16 -5 14 9 11 15 -7 15 -8 0 -12 -5 -9 -10z"></path>
<path d="M1926 2349 c-8 -48 -5 -53 24 -44 17 5 21 13 18 43 -5 55 -33 56 -42
1z"></path>
<path d="M5985 2370 c-3 -5 3 -10 14 -10 12 0 21 5 21 10 0 6 -6 10 -14 10 -8
0 -18 -4 -21 -10z"></path>
<path d="M2037 2323 c-3 -21 -9 -48 -13 -60 -9 -31 10 -29 31 3 23 36 25 87 4
92 -12 2 -18 -7 -22 -35z"></path>
<path d="M2146 2338 c-11 -51 -18 -95 -19 -123 -2 -16 -5 -35 -9 -40 -7 -12 2
-65 11 -65 4 0 15 6 26 13 14 11 17 22 12 55 -3 23 0 61 7 84 13 46 8 89 -11
95 -7 3 -14 -6 -17 -19z"></path>
<path d="M3069 2343 c-13 -16 -12 -17 4 -4 16 13 21 21 13 21 -2 0 -10 -8 -17
-17z"></path>
<path d="M5975 2320 c-9 -15 4 -30 26 -30 12 0 19 7 19 20 0 21 -33 29 -45 10z"></path>
<path d="M6047 2313 c-12 -11 -8 -23 8 -23 8 0 15 7 15 15 0 16 -12 20 -23 8z"></path>
<path d="M5977 2256 c-46 -11 -47 -12 -32 -31 14 -19 16 -19 29 -2 7 9 23 17
35 17 12 0 21 6 21 15 0 8 -1 14 -2 14 -2 -1 -25 -7 -51 -13z"></path>
<path d="M5506 2233 c-8 -19 8 -38 23 -29 16 10 13 46 -3 46 -8 0 -17 -8 -20
-17z"></path>
<path d="M2065 2230 c-4 -6 -3 -16 3 -22 13 -13 23 4 13 21 -7 10 -10 10 -16
1z"></path>
<path d="M5480 2160 c0 -5 9 -10 20 -10 11 0 20 5 20 10 0 6 -9 10 -20 10 -11
0 -20 -4 -20 -10z"></path>
<path d="M5426 1761 c-3 -5 1 -14 9 -21 12 -10 15 -10 15 3 0 19 -16 31 -24
18z"></path>
<path d="M5346 1751 c-8 -12 3 -61 14 -61 4 0 10 10 14 22 6 25 -17 57 -28 39z"></path>
<path d="M5295 1740 c4 -6 11 -8 16 -5 14 9 11 15 -7 15 -8 0 -12 -5 -9 -10z"></path>
<path d="M5090 1720 c0 -5 5 -10 10 -10 6 0 10 5 10 10 0 6 -4 10 -10 10 -5 0
-10 -4 -10 -10z"></path>
<path d="M2563 1693 c-26 -5 -47 -28 -38 -42 8 -14 75 18 75 36 0 7 -3 12 -7
12 -5 -1 -18 -4 -30 -6z"></path>
<path d="M5025 1671 c-3 -5 -1 -12 5 -16 12 -7 30 2 30 16 0 12 -27 12 -35 0z"></path>
<path d="M5460 1635 c0 -8 5 -15 10 -15 6 0 10 7 10 15 0 8 -4 15 -10 15 -5 0
-10 -7 -10 -15z"></path>
<path d="M3257 1533 c-12 -11 -8 -23 7 -23 8 0 16 7 20 15 5 15 -14 21 -27 8z"></path>
<path d="M4540 1485 c-15 -19 3 -45 31 -45 24 0 32 16 19 40 -13 24 -33 26
-50 5z"></path>
<path d="M4650 1462 c0 -15 11 -21 27 -15 12 5 12 7 1 14 -17 11 -28 11 -28 1z"></path>
<path d="M4215 1320 c3 -5 10 -10 16 -10 5 0 9 5 9 10 0 6 -7 10 -16 10 -8 0
-12 -4 -9 -10z"></path>
<path d="M2863 1305 c-3 -9 -3 -18 0 -21 9 -9 27 6 27 22 0 19 -19 18 -27 -1z"></path>
<path d="M3930 1313 c1 -12 29 -47 34 -42 7 7 -13 49 -24 49 -5 0 -10 -3 -10
-7z"></path>
<path d="M4315 1280 c-11 -5 -35 -9 -54 -9 -33 -1 -34 -1 -16 -21 21 -24 60
-26 69 -5 3 9 18 15 35 15 23 0 29 4 25 15 -7 16 -28 18 -59 5z"></path>
<path d="M4393 1256 c-23 -12 -42 -24 -43 -28 0 -12 38 -10 45 2 3 6 22 10 41
10 27 0 34 4 34 20 0 25 -21 24 -77 -4z"></path>
<path d="M3660 1250 c0 -5 5 -10 10 -10 6 0 10 5 10 10 0 6 -4 10 -10 10 -5 0
-10 -4 -10 -10z"></path>
<path d="M4316 1201 c-4 -5 -2 -12 3 -15 5 -4 12 -2 15 3 4 5 2 12 -3 15 -5 4
-12 2 -15 -3z"></path>
<path d="M4640 1191 c0 -12 5 -21 10 -21 6 0 10 -11 10 -25 0 -22 -4 -25 -26
-23 -16 2 -29 -3 -32 -10 -3 -10 4 -12 31 -7 20 4 41 4 47 0 17 -11 -8 -35
-36 -35 -34 0 -30 -17 6 -25 33 -7 87 2 96 16 3 5 -4 22 -15 38 -12 16 -21 34
-21 39 0 6 -9 13 -19 17 -11 3 -21 16 -23 27 -4 28 -28 36 -28 9z"></path>
<path d="M4466 1191 c-3 -5 1 -14 9 -21 12 -10 15 -10 15 3 0 19 -16 31 -24
18z"></path>
<path d="M4308 1152 c-36 -22 -35 -32 1 -32 20 0 34 8 45 25 15 23 15 25 -1
24 -10 0 -30 -8 -45 -17z"></path>
<path d="M4130 1135 c0 -8 -5 -15 -11 -15 -5 0 -7 -5 -4 -11 5 -7 13 -4 26 7
10 9 16 21 13 25 -8 14 -24 10 -24 -6z"></path>
<path d="M4417 1144 c-16 -16 -6 -34 19 -34 19 0 25 5 22 17 -3 19 -29 29 -41
17z"></path>
<path d="M4181 1086 c-8 -10 -9 -16 -1 -21 5 -3 13 1 16 10 9 22 -1 29 -15 11z"></path>
<path d="M4332 1088 c-21 -21 -15 -40 11 -33 30 10 41 21 33 34 -9 14 -29 14
-44 -1z"></path>
<path d="M4936 1081 c-4 -5 -2 -12 3 -15 5 -4 12 -2 15 3 4 5 2 12 -3 15 -5 4
-12 2 -15 -3z"></path>
<path d="M4380 1019 c0 -5 5 -7 10 -4 6 3 10 8 10 11 0 2 -4 4 -10 4 -5 0 -10
-5 -10 -11z"></path>
<path d="M4727 1024 c-9 -10 4 -34 19 -34 8 0 14 9 14 20 0 19 -19 27 -33 14z"></path>
<path d="M4763 955 c-3 -9 -3 -18 0 -22 10 -10 37 6 37 22 0 20 -29 20 -37 0z"></path>
<path d="M4855 770 c4 -6 11 -8 16 -5 14 9 11 15 -7 15 -8 0 -12 -5 -9 -10z"></path>
</g>
</svg>